<svg height="17" viewBox="0 0 17 17" width="17" xmlns="http://www.w3.org/2000/svg"><g fill="#fff" fill-rule="evenodd"><path d="m3.70163874 16.9545183c-.03453403 0-.06942408-.0052513-.10360209-.0163769-.12015707-.0388953-.20836126-.1418744-.22856545-.2667487l-.46469633-2.8950733c-.016911-.1066283.01806806-.2149477.09425654-.2911362l2.62921466-2.6292146c.08936126-.0895393.22028796-.1218482.3416021-.0821518.12015707.0388062.20827225.1418743.22856544.2666596l.46469634 2.8951623c.01691099.1066283-.01806807.2148587-.09425655.2911362l-2.62912565 2.6291256c-.06435079.0642618-.15032984.0986178-.23808901.0986178zm-.10556021-3.1150942.33332461 2.0752461 2.04204712-2.0420472-.33332461-2.075246z" fill-rule="nonzero"/><path d="m3.23160209 14.0541047c-.01762303 0-.0356911-.0013351-.05331413-.0043612l-2.89534032-.4648744c-.12460733-.0199372-.2278534-.1083194-.26648167-.2284764-.0390733-.1203351-.00756545-.2520629.08179581-.3414241l2.62921466-2.6291257c.0765445-.0763665.18539791-.1118795.29131414-.0942565l2.89534031.4648743c.12460733.0199372.2278534.1083194.26657068.2284765.03898429.1203351.00747644.2520628-.08179581.3414241l-2.62921466 2.6291256c-.06390576.0637278-.1495288.0986178-.23808901.0986178zm-2.19184293-1.0289005 2.07551309.3333246 2.04204712-2.0422251-2.07551309-.3333246z" fill-rule="nonzero"/><path d="m9.05895288 7.42517277-3.80141361 3.80159163.47564398.475644 3.80150261-3.80150264c-.15860733-.15860733-.31712565-.31721466-.47573298-.47573299z"/><path d="m9.89497906 8.4404555c-.08597906 0-.17231414-.03284293-.238-.0985288l-1.03940314-1.03940314c-.13101571-.13137173-.13101571-.34418325 0-.47564398l4.56392148-4.56383246c.3922461-.39215707 1.1438063-.13288482 1.2901309-.0764555.0443246.016911.0844659.04281152.1181989.0764555l.1069843.10698429c.033377.03337697.0592775.07378534.0761885.11784294.0558953.14676963.3153455.89868586-.0761885 1.2903979l-4.5639214 4.56365445c-.0655969.06568587-.15193198.0985288-.23791104.0985288zm-.56375916-1.37575393.56384816.56384817 4.32592144-4.32592147c.0382723-.05892146.0113037-.30626701-.0536701-.50991099-.219932-.07093718-.4557068-.08918325-.5131152-.05126702z" fill-rule="nonzero"/><path d="m16.9172251.02776963c-.0367591-.03622513-.0946125-.03693717-.1320837-.00284816l-2.6723822 2.42565968c-.0194922.01762304-.0307958.04263351-.0315079.06889005-.000801.02625655.0093456.05162304.0281257.07022514l.2777853.27760732c.0180681.01806807.0423665.02821466.068.02821466h.0030262c.0262565-.00097905.051445-.01254973.069068-.03248691l2.3945079-2.70326701c.033733-.03809424.0319529-.09612566-.0045393-.13199477z"/><path d="m12.7 3.141h.384v1.854h-.384z" transform="matrix(.70710678 -.70710678 .70710678 .70710678 .899469 10.30751)"/><path d="m11.485 4.356h.384v1.854h-.384z" transform="matrix(.70710678 -.70710678 .70710678 .70710678 -.315531 9.804241)"/></g></svg>