<svg xmlns="http://www.w3.org/2000/svg" width="17" height="17" viewBox="0 0 17 17">
  <defs>
    <linearGradient id="boxing-02-a" x1="50%" x2="50%" y1="0%" y2="100%">
      <stop offset="0%" stop-color="#FAD961"/>
      <stop offset="69.911%" stop-color="#F88C31"/>
      <stop offset="100%" stop-color="#F76B1C"/>
    </linearGradient>
    <linearGradient id="boxing-02-b" x1="50%" x2="50%" y1="0%" y2="100%">
      <stop offset="0%" stop-color="#FAD961"/>
      <stop offset="34.899%" stop-color="#F9B349"/>
      <stop offset="51.529%" stop-color="#F8A13E"/>
      <stop offset="53.283%" stop-color="#F89F3C"/>
      <stop offset="100%" stop-color="#F76B1C"/>
    </linearGradient>
  </defs>
  <g fill="none" fill-rule="evenodd">
    <path fill="url(#boxing-02-a)" fill-rule="nonzero" d="M6.58450704,11.6605634 C6.58450704,11.6605634 6.77605634,11.8042254 7.08732394,11.9478873 C7.35070423,12.0676056 7.70985915,12.2112676 8.11690141,12.2830986 C8.11690141,12.2830986 8.11690141,12.2830986 8.14084507,12.2830986 C8.18873239,12.2591549 8.35633803,12.1873239 8.64366197,12.1394366 C8.97887324,12.0676056 9.48169014,11.971831 10.1760563,11.9239437 C11.5887324,11.8521127 13.0014085,11.7323944 14.3661972,11.4211268 C14.8211268,11.3253521 15.1802817,11.2056338 15.4197183,11.0619718 C15.8028169,10.8464789 16.1859155,10.5112676 16.4492958,10.1042254 C16.6169014,9.86478873 16.7366197,9.57746479 16.7605634,9.31408451 C16.7605634,9.24225352 16.784507,9.17042254 16.784507,9.12253521 C16.784507,8.97887324 16.7605634,8.81126761 16.7126761,8.66760563 C16.6408451,8.42816901 16.5211268,8.26056338 16.4014085,8.11690141 C16.2098592,7.92535211 15.9704225,7.82957746 15.7070423,7.8056338 C15.3957746,7.78169014 15.1323944,7.85352113 14.8450704,7.92535211 C14.6056338,7.97323944 14.2225352,8.02112676 13.7915493,8.04507042 C13.6957746,8.04507042 13.6,8.06901408 13.5042254,8.06901408 C13.0971831,8.09295775 12.6661972,8.11690141 12.3070423,8.11690141 C11.8521127,8.14084507 11.4929577,8.14084507 11.3253521,8.16478873 C11.1577465,8.18873239 10.9661972,8.21267606 10.6309859,8.35633803 C10.0084507,8.66760563 8.88309859,9.45774648 6.58450704,11.6605634 Z"/>
    <path fill="url(#boxing-02-b)" fill-rule="nonzero" d="M3.87887324,7.82957746 C3.85492958,8.09295775 3.87887324,8.35633803 3.95070423,8.61971831 C4.23802817,9.84084507 5.38732394,10.8464789 6.15352113,11.4211268 C6.36901408,11.5647887 6.53661972,11.684507 6.68028169,11.7802817 C6.70422535,11.8042254 6.75211268,11.828169 6.77605634,11.828169 C6.8,11.8521127 6.82394366,11.8521127 6.84788732,11.8760563 C6.87183099,11.8760563 6.87183099,11.9 6.89577465,11.9 C6.91971831,11.9239437 6.94366197,11.9239437 6.94366197,11.9239437 C6.94366197,11.9239437 7.9971831,10.415493 9.48169014,9.33802817 C10.0084507,8.95492958 10.6070423,8.64366197 11.2056338,8.45211268 C11.3492958,8.40422535 11.4929577,8.38028169 11.6366197,8.35633803 C11.8760563,8.3084507 12.115493,8.28450704 12.3788732,8.23661972 C13.7197183,7.97323944 14.7492958,7.54225352 15.443662,6.9915493 C15.5873239,6.87183099 15.7309859,6.75211268 15.8507042,6.63239437 C15.9464789,6.53661972 16.0422535,6.44084507 16.1140845,6.34507042 C16.2098592,6.22535211 16.3056338,6.08169014 16.3774648,5.96197183 C16.4492958,5.84225352 16.4971831,5.67464789 16.4971831,5.53098592 C16.4971831,5.45915493 16.4971831,5.36338028 16.4732394,5.2915493 C16.4492958,5.14788732 16.4014085,4.98028169 16.3295775,4.81267606 C16.3056338,4.74084507 16.2816901,4.69295775 16.2338028,4.62112676 C16.1859155,4.54929577 16.1619718,4.47746479 16.1140845,4.4056338 C16.0661972,4.33380282 16.0183099,4.23802817 15.9704225,4.16619718 C15.7549296,3.83098592 15.4915493,3.49577465 15.2042254,3.16056338 C14.6535211,2.51408451 14.0309859,1.91549296 13.5760563,1.48450704 C12.8577465,0.790140845 12.2591549,0.407042254 11.684507,0.215492958 C11.4211268,0.143661972 11.1816901,0.0957746479 10.9183099,0.0957746479 C10.8464789,0.0957746479 10.7746479,0.0957746479 10.7028169,0.0957746479 C10.415493,0.11971831 10.1042254,0.191549296 9.74507042,0.287323944 C9.60140845,0.335211268 9.45774648,0.383098592 9.31408451,0.430985915 C9.14647887,0.502816901 8.97887324,0.598591549 8.81126761,0.694366197 C8.02112676,1.1971831 7.44647887,2.03521127 6.94366197,2.87323944 C6.84788732,3.04084507 6.75211268,3.2084507 6.65633803,3.35211268 C6.6084507,3.44788732 6.53661972,3.54366197 6.48873239,3.61549296 C6.24929577,4.02253521 5.98591549,4.42957746 5.72253521,4.83661972 C4.88450704,6.22535211 3.87887324,7.82957746 3.87887324,7.82957746 Z"/>
    <path fill="#C05A00" fill-rule="nonzero" d="M4.26197183,16.3056338 C4.26197183,16.3056338 4.95633803,15.7309859 5.36338028,15.6112676 C5.74647887,15.4915493 5.65070423,15.443662 6.17746479,14.8929577 C6.68028169,14.3422535 8.28450704,12.4985915 8.40422535,12.4028169 C8.5,12.3070423 8.16478873,12.043662 8.16478873,12.043662 C8.16478873,12.043662 3.85492958,7.9971831 3.63943662,7.94929577 C3.42394366,7.92535211 3.18450704,8.11690141 2.63380282,8.83521127 C2.05915493,9.55352113 0.383098592,11.684507 0.215492958,12.0197183 C0.0478873239,12.3309859 -0.167605634,13.0253521 1.81971831,14.9169014 C3.80704225,16.8084507 4.26197183,16.3056338 4.26197183,16.3056338 Z"/>
    <path d="M8.14084507,12.2830986 C8.14084507,12.2830986 9.0028169,11.9478873 10.3915493,11.9 C11.756338,11.8521127 14.9169014,11.7802817 15.7788732,10.7746479 C16.6408451,9.79295775 17.2873239,8.66760563 16.2577465,7.97323944 C15.228169,7.25492958 14.7253521,8.02112676 14.1267606,8.14084507 C13.528169,8.26056338 12.043662,8.35633803 11.3732394,8.61971831 C10.7028169,8.88309859 5.43521127,10.8225352 5.43521127,10.8225352 C5.43521127,10.8225352 7.03943662,12.3549296 8.14084507,12.2830986 Z"/>
    <path fill="#FF7800" fill-rule="nonzero" d="M14.4140845,6.87183099 C14.3183099,7.32676056 14.1267606,7.47042254 14.2943662,7.66197183 C14.3183099,7.68591549 14.5338028,7.94929577 14.5816901,7.94929577 C14.6774648,7.9971831 14.8211268,7.9971831 15.0126761,7.94929577 C15.1323944,7.92535211 15.2521127,7.90140845 15.371831,7.85352113 C15.5873239,7.78169014 15.8028169,7.68591549 16.0183099,7.56619718 C16.2098592,7.47042254 16.3774648,7.32676056 16.5211268,7.20704225 C16.6169014,7.13521127 16.6887324,7.03943662 16.7366197,6.94366197 C16.8323944,6.8 16.8802817,6.63239437 16.9042254,6.46478873 C16.928169,6.32112676 16.9042254,6.17746479 16.8802817,6.00985915 C16.856338,5.84225352 16.8084507,5.65070423 16.7366197,5.48309859 C16.7126761,5.43521127 16.6887324,5.38732394 16.6647887,5.33943662 C16.4492958,4.83661972 16.0901408,4.30985915 15.6591549,3.85492958 C15.6591549,3.85492958 15.6352113,3.87887324 15.6112676,3.95070423 C15.5394366,4.0943662 15.4197183,4.33380282 15.2521127,4.66901408 C15.156338,4.88450704 15.0366197,5.14788732 14.9169014,5.41126761 C14.7971831,5.72253521 14.6535211,6.03380282 14.5577465,6.34507042 C14.4859155,6.51267606 14.4380282,6.70422535 14.4140845,6.87183099 Z"/>
    <path fill="#1A1A1A" fill-rule="nonzero" d="M0.191549296,12.3788732 C0.167605634,12.7140845 0.335211268,13.1929577 1.10140845,14.0309859 C2.2028169,15.2042254 2.96901408,15.7788732 3.47183099,16.0422535 C4.02253521,16.3295775 4.26197183,16.2816901 4.26197183,16.2816901 C5.41126761,15.0366197 6.56056338,13.7676056 7.70985915,12.5225352 C7.73380282,12.4985915 7.75774648,12.4746479 7.78169014,12.4507042 C7.8056338,12.4028169 7.85352113,12.3788732 7.87746479,12.3309859 C7.35070423,12.1394366 6.96760563,11.9957746 6.22535211,11.4211268 C5.96197183,11.2295775 5.65070423,10.9661972 5.2915493,10.6549296 C3.87887324,9.43380282 3.75915493,8.02112676 3.75915493,8.02112676 C3.75915493,8.02112676 3.75915493,7.9971831 3.73521127,7.9971831 C3.71126761,7.9971831 3.68732394,7.97323944 3.63943662,7.97323944 C3.56760563,7.97323944 3.49577465,7.97323944 3.35211268,7.9971831 C3.04084507,8.09295775 0.622535211,11.4211268 0.430985915,11.828169 C0.335211268,11.971831 0.215492958,12.1394366 0.191549296,12.3788732 Z"/>
    <path fill="#CCC" fill-rule="nonzero" d="M1.0056338,10.8225352 C1.07746479,10.7267606 1.14929577,10.6549296 1.1971831,10.5591549 C1.38873239,10.3197183 1.58028169,10.056338 1.79577465,9.81690141 C2.10704225,9.40985915 2.41830986,9.02676056 2.72957746,8.61971831 C2.72957746,8.61971831 2.58591549,8.66760563 2.60985915,8.88309859 C2.60985915,9.05070423 2.72957746,9.31408451 3.04084507,9.74507042 C3.28028169,10.0802817 3.66338028,10.4873239 4.23802817,11.0380282 C4.54929577,11.3253521 4.9084507,11.6366197 5.31549296,11.9957746 C4.98028169,12.3549296 4.64507042,12.7380282 4.28591549,13.0971831 C4.07042254,13.3366197 3.85492958,13.5521127 3.63943662,13.7915493 C3.56760563,13.8633803 3.49577465,13.9591549 3.42394366,14.0309859 C3.42394366,14.0309859 3.37605634,14.0070423 3.32816901,13.9591549 C3.2084507,13.8633803 2.99295775,13.6957746 2.72957746,13.4802817 C2.3943662,13.1929577 2.01126761,12.8098592 1.67605634,12.4028169 C1.26901408,11.9 0.957746479,11.3253521 1.0056338,10.8225352 Z"/>
  </g>
</svg>
