<?xml version="1.0" encoding="UTF-8"?>
<svg width="17px" height="17px" viewBox="0 0 17 17" version="1.1" xmlns="http://www.w3.org/2000/svg" xmlns:xlink="http://www.w3.org/1999/xlink">
    <!-- Generator: Sketch 48.2 (47327) - http://www.bohemiancoding.com/sketch -->
    <title>sports icons/iceHockey</title>
    <desc>Created with Sketch.</desc>
    <defs></defs>
    <g id="Artboard-Copy" stroke="none" stroke-width="1" fill="none" fill-rule="evenodd">
        <g id="sports-icons/iceHockey">
            <path d="M1.97608,7.354132 C1.2886,7.382692 0.93466,7.832172 0.77282,8.441112 C0.5814,9.184352 0.38998,9.927592 0.19822,10.671172 C0.03842,11.300852 0.06426,11.806092 0.63852,12.211712 C1.00742,12.472152 1.6252,12.653032 2.05496,12.779852 C3.66486,13.255172 5.9194,13.641072 7.5854,13.792372 L8.02808,13.823312 C8.20012,13.819912 8.37216,13.816852 8.5442,13.813452 C8.1549,13.792372 7.78634,13.754632 7.4001,13.706352 C5.87214,13.515952 3.54246,13.108292 2.08352,12.617332 C1.27942,12.347032 0.53924,11.998872 0.66062,11.024432 L0.73304,10.661312 C0.9248,9.918072 1.11588,9.174492 1.30764,8.431252 C1.45962,7.860392 1.77412,7.408872 2.41774,7.349372 C2.44256,7.347672 2.46738,7.346312 2.4922,7.344272 C2.32016,7.347672 2.14812,7.350732 1.97608,7.354132" id="Fill-46" fill="#FFAF53"></path>
            <path d="M12.026106,7.614232 C11.722826,8.266012 11.314146,8.905212 10.675626,9.274792 C10.373366,9.449892 10.035066,9.548832 9.686226,9.569232 C9.644066,9.570252 9.601906,9.571612 9.560086,9.572972 C9.731786,9.569572 9.903826,9.566512 10.075866,9.563112 C10.445786,9.553932 10.762326,9.489332 11.094166,9.318312 C11.770426,8.970492 12.237926,8.281992 12.541886,7.604372 C13.581606,5.205332 14.561146,2.794392 15.600866,0.395352 C15.616166,0.361692 15.642006,0.345032 15.678046,0.340272 L15.144246,0.353532 C15.116366,0.361012 15.096986,0.378692 15.084746,0.404872 C14.045026,2.803912 13.065826,5.215192 12.026106,7.614232" id="Fill-57" fill="#FFAF53"></path>
            <path d="M15.600764,0.395182 L12.541784,7.604542 C12.021244,8.753062 11.151524,9.742802 9.676944,9.535742 C8.202364,9.328682 4.229804,7.787462 3.239044,7.419582 C2.248284,7.051702 1.576444,7.387622 1.307504,8.431082 L0.732904,10.661142 C0.567324,11.305102 0.541144,11.971842 1.590044,12.431522 C2.638944,12.891542 5.958704,13.674222 8.326124,13.858162 C10.523884,14.042102 11.819284,12.381882 12.500644,10.731182 L14.091164,6.878302 L16.459604,0.806582 C16.478644,0.761022 16.457224,0.708322 16.412344,0.688262 L15.721804,0.348262 C15.698684,0.338062 15.675224,0.337382 15.651424,0.346562 C15.627964,0.355742 15.610624,0.372062 15.600764,0.395182" id="Fill-59" fill="#FF7800"></path>
            <path d="M15.600764,0.395182 L13.062664,6.402642 C13.076944,6.405022 13.090544,6.409102 13.104484,6.415222 L14.104424,6.846002 L16.459604,0.806582 C16.478644,0.761022 16.457224,0.708322 16.412344,0.688262 L15.721804,0.348262 C15.698684,0.338062 15.675224,0.337382 15.651424,0.346562 C15.627964,0.355742 15.610624,0.372062 15.600764,0.395182" id="Fill-198" fill="#222A2B"></path>
            <path d="M6.37568,13.614552 C7.05228,13.724712 7.72004,13.811072 8.32592,13.858332 C8.49252,13.872272 8.65402,13.875332 8.81042,13.868872 L6.4821,8.610092 C5.41892,8.240172 4.37274,7.846112 3.71178,7.597232 L6.37568,13.614552 Z M9.43194,13.787612 C9.78418,13.708392 10.10616,13.576472 10.4006,13.404092 L8.57582,9.282612 C8.1719,9.168712 7.72174,9.027612 7.25628,8.873252 L9.43194,13.787612 Z" id="Fill-204" fill="#FFAF53"></path>
            <path d="M9.462506,13.70268 C6.849266,13.70234 4.730386,13.30454 4.730386,12.81392 C4.730386,12.71532 4.804166,12.71294 4.859586,12.64086 C4.898686,12.59054 4.951726,12.5375 5.025846,12.48582 C5.448126,12.09856 7.274266,11.80684 9.462506,11.8065 C11.650746,11.80684 13.476546,12.09856 13.899166,12.48582 C13.973286,12.5375 14.026326,12.59054 14.065426,12.64086 C14.120846,12.71294 14.194626,12.71532 14.194626,12.81392 C14.194626,13.30454 12.075746,13.70234 9.462506,13.70268" id="Fill-240" fill="#616467"></path>
            <path d="M14.2205,12.75459 L14.2205,15.42665 C14.20724,15.62589 13.90872,15.75101 13.75164,15.81187 C12.75714,16.19879 10.77834,16.30419 9.70938,16.31439 C8.51224,16.32561 6.4141,16.23993 5.28292,15.85029 C5.09014,15.78365 4.74164,15.66567 4.709,15.42665 L4.709,12.75459 C4.71648,12.80967 4.72498,12.84163 4.76408,12.88991 C5.09014,13.29315 6.70786,13.48627 7.19814,13.53591 C8.88488,13.70761 11.48146,13.69469 13.13454,13.32001 C13.37152,13.26595 14.13924,13.08167 14.21438,12.80049 L14.2205,12.75459 Z" id="Fill-320" fill="#202729"></path>
            <path d="M9.49898976,13.4267171 C7.18358976,13.4267171 5.66582976,13.1173171 5.31698976,12.8374971 C5.28638976,12.8130171 5.33194976,12.7664371 5.36934976,12.7800371 C7.18528976,13.2978571 11.7916098,13.3359371 13.5548498,12.7569171 C13.5939498,12.7439971 13.6381498,12.7878571 13.6082298,12.8150571 C13.3732898,13.0282371 11.8021498,13.4267171 9.49898976,13.4267171" id="Fill-384" fill="#1B2626"></path>
        </g>
    </g>
</svg>