<?xml version="1.0" encoding="UTF-8"?>
<svg width="17px" height="17px" viewBox="0 0 17 17" version="1.1" xmlns="http://www.w3.org/2000/svg" xmlns:xlink="http://www.w3.org/1999/xlink">
    <!-- Generator: Sketch 48.2 (47327) - http://www.bohemiancoding.com/sketch -->
    <title>sports icons/tennis</title>
    <desc>Created with Sketch.</desc>
    <defs>
        <radialGradient cx="42.7463099%" cy="39.6946121%" fx="42.7463099%" fy="39.6946121%" r="77.0708571%" id="radialGradient-1">
            <stop stop-color="#FFFF29" offset="7.79967%"></stop>
            <stop stop-color="#FCF825" offset="17.04%"></stop>
            <stop stop-color="#F5E518" offset="30.35%"></stop>
            <stop stop-color="#EBCC08" offset="43.27%"></stop>
            <stop stop-color="#DCBE06" offset="50.36%"></stop>
            <stop stop-color="#B69900" offset="63.84%"></stop>
            <stop stop-color="#B39600" offset="64.94%"></stop>
            <stop stop-color="#D1A300" offset="87.4%"></stop>
        </radialGradient>
        <radialGradient cx="43.9107595%" cy="31.6028195%" fx="43.9107595%" fy="31.6028195%" r="98.0318735%" gradientTransform="translate(0.439108,0.316028),scale(1.000000,0.935358),translate(-0.439108,-0.316028)" id="radialGradient-2">
            <stop stop-color="#FFFFFF" offset="0%"></stop>
            <stop stop-color="#D6D6E0" offset="43.27%"></stop>
            <stop stop-color="#C8C8D1" offset="49.78%"></stop>
            <stop stop-color="#A3A3AB" offset="62.17%"></stop>
            <stop stop-color="#9A9AA2" offset="64.94%"></stop>
            <stop stop-color="#D1D1D1" offset="89.49%"></stop>
        </radialGradient>
        <radialGradient cx="47.619618%" cy="31.0345983%" fx="47.619618%" fy="31.0345983%" r="104.945635%" gradientTransform="translate(0.476196,0.310346),scale(1.000000,0.857507),translate(-0.476196,-0.310346)" id="radialGradient-3">
            <stop stop-color="#E6E6E6" offset="0%"></stop>
            <stop stop-color="#BDBDC7" offset="43.27%"></stop>
            <stop stop-color="#AFAFB8" offset="49.78%"></stop>
            <stop stop-color="#8A8A92" offset="62.17%"></stop>
            <stop stop-color="#818189" offset="64.94%"></stop>
            <stop stop-color="#B8B8B8" offset="89.49%"></stop>
        </radialGradient>
    </defs>
    <g id="Artboard-Copy" stroke="none" stroke-width="1" fill="none" fill-rule="evenodd">
        <g id="sports-icons/tennis" fill-rule="nonzero">
            <circle id="Oval" fill="url(#radialGradient-1)" cx="8.5" cy="8.5" r="8.5"></circle>
            <path d="M10.9515789,2.18571429 C12.4240602,1.5875188 13.8505263,2.57684211 14.6557895,3.4281203 C14.2876692,2.92195489 13.8505263,2.43879699 13.3673684,2.04766917 C12.907218,1.72556391 12.4470677,1.54150376 12.0099248,1.49548872 C10.2843609,1.31142857 8.76586466,2.66887218 8.3287218,4.37142857 C7.84556391,6.21203008 8.37473684,7.36240602 8.69684211,8.09864662 C9.34105263,9.61714286 10.4914286,10.5604511 11.1586466,11.9869173 C11.9869173,13.7124812 11.5037594,14.8398496 11.1356391,15.2309774 C10.6524812,15.7371429 9.93924812,15.9902256 9.38706767,16.1282707 C10.0082707,16.0362406 10.6064662,15.875188 11.1816541,15.6451128 C11.572782,15.4150376 11.8718797,15.1389474 12.0329323,14.8168421 C12.24,14.4027068 12.3090226,13.9425564 12.3090226,13.4593985 C12.2630075,11.5957895 10.8595489,10.2613534 9.61714286,8.19067669 C8.35172932,6.02796992 8.90390977,3.03699248 10.9515789,2.18571429 Z M2.82992481,2.13969925 C2.59984962,2.34676692 2.36977444,2.62285714 2.23172932,2.96796992 C1.9556391,3.61218045 2.3237594,4.60150376 2.36977444,5.49879699 C2.43879699,6.62616541 2.16270677,7.93759398 1.33443609,9.59413534 C0.874285714,10.5144361 0.874285714,11.4117293 1.1043609,12.0789474 C1.40345865,12.6311278 1.77157895,13.1142857 2.18571429,13.5744361 C0.828270677,12.0329323 1.63353383,10.4684211 2.30075188,9.20300752 C3.26706767,7.3393985 3.26706767,6.00496241 2.80691729,3.95729323 C2.53082707,2.76090226 2.99097744,2.2087218 3.35909774,1.74857143 C3.15203008,1.8406015 2.99097744,1.97864662 2.82992481,2.13969925 Z" id="Shape" fill="url(#radialGradient-2)"></path>
            <path d="M13.3903759,2.02466165 C12.9302256,1.70255639 12.4700752,1.51849624 12.0329323,1.4724812 C10.3073684,1.28842105 8.78887218,2.64586466 8.35172932,4.34842105 C7.86857143,6.18902256 8.39774436,7.3393985 8.71984962,8.0756391 C9.36406015,9.59413534 10.5144361,10.5374436 11.1816541,11.9639098 C12.0099248,13.6894737 11.5267669,14.8168421 11.1586466,15.2079699 C10.7675188,15.6221053 10.2153383,15.875188 9.70917293,16.0132331 C9.73218045,16.0132331 9.75518797,16.0132331 9.77819549,15.9902256 C11.5957895,15.5300752 11.7108271,14.4027068 11.7568421,14.0115789 C11.7798496,13.482406 11.6878195,12.815188 11.3196992,12.0329323 C10.6294737,10.6064662 9.50210526,9.66315789 8.85789474,8.14466165 C8.53578947,7.40842105 7.9606015,6.18902256 8.46676692,4.34842105 C8.97293233,2.50781955 10.4454135,1.33443609 12.1709774,1.54150376 C12.5851128,1.5875188 13.0222556,1.77157895 13.436391,2.04766917 C13.3903759,2.04766917 13.3903759,2.02466165 13.3903759,2.02466165 Z M2.23172932,2.94496241 C1.9556391,3.58917293 2.3237594,4.57849624 2.36977444,5.47578947 C2.43879699,6.60315789 2.16270677,7.91458647 1.33443609,9.57112782 C0.874285714,10.4914286 0.874285714,11.3887218 1.1043609,12.0559398 C1.15037594,12.1479699 1.2193985,12.24 1.26541353,12.3320301 C1.26541353,12.3320301 1.26541353,12.3320301 1.26541353,12.3320301 C1.15037594,12.1479699 0.736240602,11.2046617 1.42646617,9.66315789 C2.18571429,7.9606015 2.53082707,6.64917293 2.46180451,5.52180451 C2.43879699,4.92360902 2.2087218,4.02631579 2.18571429,3.72721805 C2.16270677,3.26706767 2.25473684,2.82992481 2.73789474,2.23172932 C2.53082707,2.39278195 2.34676692,2.64586466 2.23172932,2.94496241 Z" id="Shape" fill="url(#radialGradient-3)"></path>
        </g>
    </g>
</svg>