<?xml version="1.0" encoding="UTF-8"?>
<svg width="17px" height="17px" viewBox="0 0 17 17" version="1.1" xmlns="http://www.w3.org/2000/svg" xmlns:xlink="http://www.w3.org/1999/xlink">
    <!-- Generator: Sketch 48.2 (47327) - http://www.bohemiancoding.com/sketch -->
    <title>sports icons/motorSport</title>
    <desc>Created with Sketch.</desc>
    <defs></defs>
    <g id="Artboard-Copy" stroke="none" stroke-width="1" fill="none" fill-rule="evenodd">
        <g id="sports-icons/motorSport">
            <path d="M1.21890547,11.2628524 C-1.22537313,2.89958541 4.57379768,-2.5880597 12.4577944,1.24610282 C14.3029851,2.39635158 15.3094527,4.07379768 15.8366501,6.06276949 C16.435738,8.84253731 16.483665,11.5264511 15.9325041,14.0426202 C15.5970149,15.0970149 15.0698176,16.0076285 14.4467662,16.8223881 C11.5711443,16.5108624 1.4106136,11.7421227 1.21890547,11.2628524 Z" id="Shape" fill="#ED2224"></path>
            <path d="M11.9545605,1.00646766 C12.1223051,1.07835821 12.2900498,1.15024876 12.4817579,1.24610282 C13.464262,1.84519071 14.207131,2.61202322 14.7582919,3.4986733 C14.5186567,3.810199 14.0633499,3.69038143 13.416335,3.28300166 C12.0983416,2.34842454 10.6844942,1.58159204 9.12686567,1.00646766 C9.19875622,0.910613599 9.29461028,0.814759536 9.36650083,0.742868988 C9.91766169,0.862686567 10.444859,1.05439469 10.9480929,1.27006633 C11.3554726,1.2221393 11.6909619,1.12628524 11.9545605,1.00646766 Z" id="Shape" fill="#FFFFFF"></path>
            <path d="M1.31475954,4.04983416 C1.57835821,3.42678275 1.91384743,2.85165837 2.3212272,2.34842454 C2.22537313,10.687728 9.12686567,12.6766998 15.9564677,13.8988391 C15.9564677,13.9467662 15.9325041,13.9946932 15.9325041,14.0426202 C15.7168325,14.7375622 15.4053068,15.3366501 15.0698176,15.935738 C6.97014925,13.1320066 1.45854063,10.3522388 1.31475954,4.04983416 Z" id="Shape" fill="#FFFFFF"></path>
            <path d="M1.21890547,11.2628524 C1.14701493,10.9992537 1.07512438,10.7596186 1.00323383,10.4960199 L1.84195688,11.0951078 C5.34063018,12.7725539 8.863267,14.2822554 12.4098673,15.6481758 C13.2965174,15.983665 14.0393864,16.3670813 14.8781095,16.2233002 C14.7343284,16.4389718 14.5905473,16.6306799 14.4467662,16.8463516 C11.5711443,16.5108624 1.4106136,11.7421227 1.21890547,11.2628524 Z" id="Shape" fill="#303639"></path>
            <path d="M15.9804312,6.086733 C16.4597015,8.38723051 16.6034826,10.6158375 16.3159204,12.7485904 C12.5296849,12.3412106 5.46044776,10.7116915 4.98117745,6.11069652 C4.95721393,5.55953566 5.14892206,5.1761194 5.43648425,4.8645937 C6.20331675,4.02587065 7.28167496,4.38532338 8.12039801,4.81666667 C10.9960199,6.25447761 12.4817579,5.94295191 15.9804312,6.086733 Z" id="Shape" fill="#1E2427"></path>
            <path d="M15.8126866,12.6766998 C15.5970149,12.6527363 15.3573798,12.6048093 15.1417081,12.5808458 C15.2854892,11.478524 15.3573798,10.3762023 15.3094527,9.2738806 C15.2615257,8.19552239 15.1177446,7.11716418 14.902073,6.03880597 C15.1177446,6.03880597 15.3573798,6.03880597 15.5970149,6.06276949 C15.8126866,7.16509121 15.9804312,8.26741294 16.0283582,9.34577114 C16.0523217,10.4480929 15.9564677,11.5743781 15.8126866,12.6766998 Z M14.3988391,12.4610282 C14.1831675,12.4131012 13.9435323,12.3651741 13.7038972,12.3172471 C13.7997512,11.2149254 13.8716418,10.1126036 13.8237148,9.03424544 C13.7757877,8.02777778 13.6320066,7.02131012 13.4402985,6.01484245 C13.6559701,6.01484245 13.8956053,6.01484245 14.1352405,6.03880597 C14.3269486,7.09320066 14.4946932,8.12363184 14.5426202,9.17802653 C14.5905473,10.2563847 14.5186567,11.3587065 14.3988391,12.4610282 Z M13.0329187,12.173466 C12.6495025,12.0776119 12.2660862,11.9817579 11.8587065,11.8619403 C11.930597,10.7116915 11.9545605,9.56144279 11.8587065,8.43515755 C11.7868159,7.59643449 11.6669983,6.73374793 11.5232172,5.89502488 C11.9066335,5.94295191 12.3140133,5.96691542 12.721393,5.99087894 C12.9131012,6.94941957 13.0329187,7.9079602 13.1048093,8.86650083 C13.1766998,9.96882255 13.1287728,11.0711443 13.0329187,12.173466 Z" id="Shape" fill="#40484C"></path>
            <path d="M6.68258706,5.05630182 C7.35356551,5.05630182 7.90472637,5.60746269 7.90472637,6.27844113 C7.90472637,6.94941957 7.35356551,7.50058043 6.68258706,7.50058043 C6.01160862,7.50058043 5.46044776,6.94941957 5.46044776,6.27844113 C5.46044776,5.60746269 6.01160862,5.05630182 6.68258706,5.05630182 Z" id="Shape" fill="#6B777E"></path>
            <path d="M6.68258706,5.6314262 C7.0420398,5.6314262 7.32960199,5.91898839 7.32960199,6.27844113 C7.32960199,6.63789386 7.0420398,6.92545605 6.68258706,6.92545605 C6.32313433,6.92545605 6.03557214,6.63789386 6.03557214,6.27844113 C6.03557214,5.91898839 6.32313433,5.6314262 6.68258706,5.6314262 Z" id="Shape" fill="#1E2427"></path>
        </g>
    </g>
</svg>