<svg xmlns="http://www.w3.org/2000/svg" width="17" height="17" viewBox="0 0 17 17">
  <g fill="none">
    <circle cx="8.5" cy="8.5" r="8.35" fill="#FFF" stroke="#191919" stroke-width=".3"/>
    <path fill="#000" d="M10.9745865,2.18571429 C12.4700752,1.56451128 13.8735338,2.55383459 14.6557895,3.4281203 C14.4487218,3.15203008 14.2416541,2.87593985 13.9885714,2.64586466 C13.2753383,2.07067669 12.5851128,1.86360902 12.193985,1.79458647 C10.6294737,1.63353383 9.24902256,2.66887218 8.8118797,4.37142857 C8.35172932,6.23503759 8.83488722,7.3393985 9.18,8.05263158 C9.73218045,9.13398496 10.9745865,10.4914286 11.6418045,11.9178947 C12.4010526,13.5744361 11.8488722,14.8858647 11.3887218,15.2769925 C11.1356391,15.5070677 10.7675188,15.7141353 10.3993985,15.8981955 C10.6754887,15.8291729 10.9515789,15.7141353 11.2276692,15.6221053 C11.6418045,15.346015 11.9178947,15.0699248 12.0559398,14.7938346 C12.286015,14.4027068 12.3550376,13.9195489 12.3320301,13.436391 C12.286015,11.572782 10.8595489,10.2383459 9.66315789,8.16766917 C8.37473684,6.02796992 8.92691729,3.03699248 10.9745865,2.18571429 Z M2.66887218,2.30075188 C2.48481203,2.48481203 2.34676692,2.6918797 2.23172932,2.94496241 C1.9556391,3.58917293 2.30075188,4.57849624 2.36977444,5.47578947 C2.48481203,6.9712782 2.16270677,7.82255639 1.35744361,9.47909774 C0.897293233,10.3993985 0.943308271,11.3887218 1.15037594,12.0329323 C1.17338346,12.1019549 1.2193985,12.1709774 1.24240602,12.2630075 C1.49548872,12.6771429 1.79458647,13.0912782 2.11669173,13.4593985 C0.828270677,11.9409023 1.15037594,10.4454135 1.81759398,9.20300752 C2.78390977,7.3393985 2.89894737,5.95894737 2.43879699,3.93428571 C2.2087218,2.96796992 2.78390977,2.25473684 3.22105263,1.77157895 C3.03699248,1.97864662 2.87593985,2.11669173 2.66887218,2.30075188 Z"/>
    <path fill="#D0021B" d="M11.3657143,15.1389474 C11.0896241,15.253985 10.9745865,15.3690226 11.0206015,15.4150376 C11.043609,15.4380451 11.3657143,15.3 11.664812,15.1389474 C11.8718797,15.0469173 11.8488722,15.0699248 12.0789474,15.0929323 C12.2630075,15.0929323 12.3320301,15.0699248 12.3780451,15.0239098 C12.4700752,14.9318797 12.3320301,14.9548872 12.1249624,14.9088722 C11.8948872,14.8628571 11.8258647,14.9088722 11.3657143,15.1389474 Z M11.664812,14.2416541 C11.3887218,14.4257143 11.2736842,14.5407519 11.3427068,14.632782 C11.3887218,14.678797 11.7108271,14.4947368 12.0099248,14.2876692 C12.2169925,14.1726316 12.2169925,14.2186466 12.4700752,14.2876692 C12.6771429,14.3336842 12.7691729,14.3106767 12.7921805,14.2416541 C12.861203,14.1266165 12.7231579,14.103609 12.4470677,13.9655639 C12.1709774,13.8505263 12.1249624,13.9425564 11.664812,14.2416541 Z M2.46180451,3.7962406 C2.71488722,3.7962406 2.92195489,3.7962406 2.96796992,3.72721805 C3.01398496,3.61218045 2.92195489,3.54315789 2.73789474,3.54315789 C2.36977444,3.54315789 2.34676692,3.47413534 2.07067669,3.77323308 C1.81759398,4.07233083 1.65654135,4.21037594 1.72556391,4.30240602 C1.77157895,4.34842105 1.8406015,4.32541353 2.04766917,4.09533835 C2.30075188,3.84225564 2.30075188,3.77323308 2.46180451,3.7962406 Z M11.572782,13.0682707 C11.3427068,13.2753383 11.2736842,13.3903759 11.3887218,13.5054135 C11.4577444,13.5744361 11.7108271,13.3673684 11.9639098,13.0912782 C12.1479699,12.907218 12.1709774,12.9992481 12.5160902,13.0682707 C12.815188,13.1372932 12.8842105,13.0912782 12.9302256,12.9762406 C12.9762406,12.7691729 12.7461654,12.7691729 12.3780451,12.6771429 C11.9639098,12.5851128 11.9639098,12.7001504 11.572782,13.0682707 Z M12.1479699,11.9639098 C11.7338346,11.8948872 11.7568421,12.0329323 11.3657143,12.4700752 C11.1586466,12.7001504 11.0896241,12.861203 11.2276692,12.9762406 C11.2966917,13.0452632 11.5497744,12.7691729 11.7798496,12.4700752 C11.9178947,12.2630075 11.9869173,12.3550376 12.3550376,12.3780451 C12.6771429,12.4240602 12.7461654,12.3550376 12.7691729,12.24 C12.7921805,12.0329323 12.5621053,12.0329323 12.1479699,11.9639098 Z M12.4700752,13.3443609 C12.1249624,13.2293233 12.1019549,13.3443609 11.6418045,13.6664662 C11.3887218,13.8505263 11.2966917,13.9655639 11.3887218,14.0806015 C11.4347368,14.1496241 11.7338346,13.9425564 12.0329323,13.7124812 C12.24,13.5744361 12.24,13.6204511 12.5621053,13.7124812 C12.815188,13.7815038 12.907218,13.7354887 12.9302256,13.6434586 C12.9992481,13.5054135 12.7921805,13.4593985 12.4700752,13.3443609 Z M9.24902256,6.32706767 C9.59413534,6.58015038 9.68616541,6.55714286 9.75518797,6.39609023 C9.82421053,6.12 9.5481203,6.00496241 9.13398496,5.63684211 C8.71984962,5.29172932 8.69684211,5.49879699 8.19067669,5.86691729 C7.91458647,6.07398496 7.82255639,6.23503759 7.91458647,6.46511278 C7.98360902,6.60315789 8.28270677,6.39609023 8.60481203,6.12 C8.85789474,5.91293233 8.85789474,6.02796992 9.24902256,6.32706767 Z M8.69684211,5.03864662 C8.92691729,4.9006015 8.94992481,4.99263158 9.31804511,5.33774436 C9.64015038,5.61383459 9.73218045,5.61383459 9.82421053,5.45278195 C9.9162406,5.17669173 9.68616541,5.03864662 9.27203008,4.62451128 C8.88090226,4.23338346 8.85789474,4.44045113 8.30571429,4.73954887 C8.02962406,4.92360902 7.91458647,5.06165414 7.98360902,5.31473684 C7.98360902,5.47578947 8.35172932,5.2687218 8.69684211,5.03864662 Z M12.4700752,1.61052632 C12.2630075,1.40345865 12.1249624,1.31142857 12.0329323,1.33443609 C11.9869173,1.35744361 12.2169925,1.61052632 12.4700752,1.8406015 C12.6541353,2.02466165 12.5851128,2.02466165 12.5621053,2.23172932 C12.5390977,2.43879699 12.6081203,2.53082707 12.7001504,2.57684211 C12.907218,2.66887218 12.8842105,2.50781955 12.907218,2.25473684 C12.9992481,2.02466165 12.8842105,1.97864662 12.4700752,1.61052632 Z M8.92691729,4.07233083 C9.18,3.95729323 9.18,4.04932331 9.50210526,4.39443609 C9.77819549,4.69353383 9.89323308,4.69353383 9.96225564,4.5324812 C10.1003008,4.30240602 9.89323308,4.14135338 9.5481203,3.75022556 C9.22601504,3.35909774 9.15699248,3.52015038 8.55879699,3.77323308 C8.23669173,3.88827068 8.09864662,4.04932331 8.14466165,4.23338346 C8.16766917,4.39443609 8.53578947,4.25639098 8.92691729,4.07233083 Z M11.8028571,11.2736842 C11.3427068,11.2276692 11.3887218,11.3657143 11.0666165,11.8258647 C10.8825564,12.0789474 10.8595489,12.24 11.0206015,12.3550376 C11.1126316,12.4240602 11.3196992,12.1249624 11.5267669,11.8028571 C11.6418045,11.572782 11.7108271,11.664812 12.1249624,11.6878195 C12.4700752,11.7108271 12.5390977,11.6418045 12.5390977,11.5037594 C12.4930827,11.3196992 12.2630075,11.3427068 11.8028571,11.2736842 Z M10.5604511,2.09368421 C10.8365414,2.13969925 10.7905263,2.18571429 10.9055639,2.53082707 C10.997594,2.82992481 11.1356391,2.87593985 11.2506767,2.85293233 C11.5037594,2.80691729 11.3427068,2.57684211 11.2506767,2.23172932 C11.1356391,1.88661654 10.997594,1.93263158 10.3993985,1.79458647 C10.0772932,1.72556391 9.89323308,1.72556391 9.82421053,1.8406015 C9.80120301,1.93263158 10.1693233,2.00165414 10.5604511,2.09368421 Z M11.9178947,1.74857143 C12.1479699,1.88661654 12.0559398,1.93263158 12.1019549,2.18571429 C12.1249624,2.43879699 12.193985,2.50781955 12.3320301,2.53082707 C12.5390977,2.57684211 12.4700752,2.41578947 12.4700752,2.11669173 C12.4700752,1.81759398 12.3320301,1.81759398 11.8718797,1.4724812 C11.618797,1.28842105 11.4807519,1.2193985 11.4117293,1.26541353 C11.3196992,1.31142857 11.5957895,1.51849624 11.9178947,1.74857143 Z M11.2506767,1.81759398 C11.5037594,1.93263158 11.4577444,1.9556391 11.5037594,2.25473684 C11.5497744,2.50781955 11.6418045,2.57684211 11.7798496,2.59984962 C12.0099248,2.62285714 11.9178947,2.41578947 11.8488722,2.09368421 C11.8028571,1.77157895 11.6418045,1.79458647 11.1126316,1.51849624 C10.8365414,1.38045113 10.6524812,1.33443609 10.5604511,1.42646617 C10.5144361,1.4724812 10.8595489,1.65654135 11.2506767,1.81759398 Z M12.9532331,1.70255639 C12.861203,1.63353383 12.7461654,1.56451128 12.6541353,1.4724812 C12.6311278,1.4724812 12.6311278,1.4724812 12.6081203,1.4724812 C12.5621053,1.49548872 12.7921805,1.74857143 13.0452632,2.02466165 C13.2293233,2.2087218 13.1603008,2.2087218 13.1603008,2.41578947 C13.1603008,2.62285714 13.2063158,2.6918797 13.2983459,2.76090226 C13.482406,2.85293233 13.436391,2.71488722 13.482406,2.46180451 C13.5054135,2.23172932 13.3903759,2.18571429 13.0222556,1.77157895 C12.9992481,1.74857143 12.9762406,1.72556391 12.9532331,1.70255639 Z M9.89323308,2.48481203 C10.1923308,2.50781955 10.1463158,2.55383459 10.3073684,2.89894737 C10.4454135,3.19804511 10.5834586,3.24406015 10.6984962,3.19804511 C10.9285714,3.10601504 10.7675188,2.87593985 10.5834586,2.50781955 C10.3993985,2.13969925 10.2843609,2.2087218 9.64015038,2.16270677 C9.31804511,2.13969925 9.11097744,2.16270677 9.06496241,2.34676692 C9.08796992,2.43879699 9.47909774,2.48481203 9.89323308,2.48481203 Z M9.31804511,3.22105263 C9.59413534,3.15203008 9.57112782,3.24406015 9.84721805,3.58917293 C10.0772932,3.9112782 10.1923308,3.9112782 10.3073684,3.81924812 C10.5144361,3.61218045 10.2843609,3.4281203 10.0082707,3.03699248 C9.73218045,2.64586466 9.64015038,2.78390977 9.01894737,2.92195489 C8.69684211,2.99097744 8.51278195,3.10601504 8.51278195,3.29007519 C8.48977444,3.40511278 8.88090226,3.33609023 9.31804511,3.22105263 Z M11.1816541,11.1126316 C11.2966917,10.8825564 11.3657143,10.9745865 11.7798496,10.9745865 C12.1249624,10.997594 12.193985,10.9285714 12.193985,10.7905263 C12.1709774,10.5604511 11.9178947,10.5834586 11.4577444,10.5604511 C10.997594,10.5144361 11.043609,10.6754887 10.7675188,11.1586466 C10.6294737,11.4117293 10.5834586,11.572782 10.7445113,11.7108271 C10.8135338,11.7568421 11.0206015,11.4577444 11.1816541,11.1126316 Z M11.3196992,10.3303759 C11.664812,10.3303759 11.7568421,10.2613534 11.7338346,10.1233083 C11.6878195,9.89323308 11.4347368,9.9162406 10.9745865,9.89323308 C10.5144361,9.87022556 10.5604511,10.0082707 10.3073684,10.5374436 C10.1693233,10.8135338 10.1693233,10.9745865 10.3303759,11.0896241 C10.422406,11.1586466 10.6064662,10.8365414 10.7445113,10.4914286 C10.8135338,10.2383459 10.8825564,10.3303759 11.3196992,10.3303759 Z M10.8135338,9.59413534 C11.1816541,9.61714286 11.2736842,9.5481203 11.2506767,9.38706767 C11.2046617,9.13398496 10.9285714,9.18 10.422406,9.13398496 C9.9162406,9.08796992 10.0082707,9.24902256 9.70917293,9.75518797 C9.57112782,10.0312782 9.52511278,10.1923308 9.70917293,10.3303759 C9.80120301,10.3993985 10.0082707,10.0772932 10.1463158,9.73218045 C10.3303759,9.52511278 10.376391,9.57112782 10.8135338,9.59413534 Z M10.3533835,8.88090226 C10.7445113,8.90390977 10.8135338,8.83488722 10.7905263,8.69684211 C10.7445113,8.4437594 10.4684211,8.46676692 9.96225564,8.39774436 C9.45609023,8.3287218 9.52511278,8.48977444 9.22601504,8.99593985 C9.08796992,9.27203008 9.04195489,9.43308271 9.22601504,9.57112782 C9.31804511,9.64015038 9.52511278,9.31804511 9.68616541,8.97293233 C9.82421053,8.76586466 9.87022556,8.83488722 10.3533835,8.88090226 Z M9.84721805,8.14466165 C10.2383459,8.23669173 10.3533835,8.19067669 10.3533835,8.02962406 C10.3303759,7.75353383 10.0542857,7.73052632 9.52511278,7.5924812 C8.99593985,7.45443609 9.06496241,7.61548872 8.69684211,8.12165414 C8.48977444,8.37473684 8.46676692,8.55879699 8.62781955,8.74285714 C8.71984962,8.83488722 8.94992481,8.53578947 9.18,8.19067669 C9.34105263,7.91458647 9.38706767,8.02962406 9.84721805,8.14466165 Z M11.5957895,14.724812 C11.3196992,14.8628571 11.1816541,14.9778947 11.2506767,15.0469173 C11.2966917,15.0929323 11.618797,14.9318797 11.9178947,14.7478195 C12.1249624,14.632782 12.1249624,14.678797 12.3320301,14.724812 C12.5160902,14.7478195 12.5851128,14.724812 12.6311278,14.678797 C12.7231579,14.5867669 12.5851128,14.5637594 12.3550376,14.4717293 C12.1249624,14.3796992 12.0789474,14.4947368 11.5957895,14.724812 Z M1.12736842,11.4807519 C1.33443609,11.8028571 1.54150376,12.1479699 1.5875188,12.1249624 C1.65654135,12.0789474 1.5875188,11.8948872 1.38045113,11.618797 C1.08135338,11.1586466 1.05834586,11.043609 0.851278195,11.0206015 C0.75924812,10.997594 0.667218045,10.997594 0.644210526,10.997594 C0.667218045,11.0666165 0.690225564,11.1356391 0.713233083,11.2276692 C0.736240602,11.2276692 0.75924812,11.2506767 0.782255639,11.2506767 C1.01233083,11.3427068 1.01233083,11.2966917 1.12736842,11.4807519 Z M1.08135338,11.9639098 C1.26541353,12.286015 1.44947368,12.5851128 1.65654135,12.8842105 C1.63353383,12.815188 1.56451128,12.6771429 1.42646617,12.4930827 C1.2193985,12.1709774 1.15037594,12.0329323 1.08135338,11.9639098 Z M1.08135338,9.84721805 C0.782255639,9.87022556 0.644210526,9.84721805 0.667218045,10.0542857 C0.667218045,10.1693233 0.736240602,10.2613534 0.943308271,10.2613534 C1.2193985,10.2613534 1.24240602,10.2153383 1.33443609,10.4454135 C1.51849624,10.7905263 1.67954887,11.1356391 1.72556391,11.0896241 C1.81759398,10.997594 1.79458647,10.8135338 1.65654135,10.5144361 C1.38045113,9.98526316 1.40345865,9.82421053 1.08135338,9.84721805 Z M0.805263158,10.7675188 C1.01233083,10.7905263 1.03533835,10.7445113 1.12736842,10.9745865 C1.31142857,11.3196992 1.49548872,11.664812 1.54150376,11.6418045 C1.63353383,11.5957895 1.56451128,11.3887218 1.40345865,11.0896241 C1.1043609,10.5834586 1.1043609,10.4684211 0.851278195,10.4684211 C0.644210526,10.4684211 0.552180451,10.4454135 0.57518797,10.5834586 C0.644210526,10.6984962 0.667218045,10.7445113 0.805263158,10.7675188 Z M1.72556391,8.53578947 C1.38045113,8.58180451 1.15037594,8.55879699 1.15037594,8.8118797 C1.15037594,8.92691729 1.19639098,9.01894737 1.4724812,8.99593985 C1.79458647,8.97293233 1.8406015,8.90390977 1.93263158,9.11097744 C2.07067669,9.45609023 2.23172932,9.75518797 2.30075188,9.68616541 C2.41578947,9.57112782 2.39278195,9.38706767 2.27774436,9.13398496 C2.04766917,8.62781955 2.09368421,8.48977444 1.72556391,8.53578947 Z M1.35744361,9.20300752 C1.01233083,9.22601504 0.805263158,9.20300752 0.805263158,9.43308271 C0.805263158,9.5481203 0.874285714,9.66315789 1.12736842,9.64015038 C1.44947368,9.64015038 1.4724812,9.57112782 1.56451128,9.77819549 C1.70255639,10.1233083 1.88661654,10.4454135 1.93263158,10.376391 C2.02466165,10.2843609 2.00165414,10.0772932 1.88661654,9.80120301 C1.67954887,9.34105263 1.70255639,9.15699248 1.35744361,9.20300752 Z M14.1726316,2.78390977 C13.8965414,2.48481203 13.5974436,2.18571429 13.2753383,1.90962406 C13.3443609,1.97864662 13.3903759,2.09368421 13.482406,2.16270677 C13.6204511,2.36977444 13.5974436,2.34676692 13.6204511,2.53082707 C13.6434586,2.71488722 13.6894737,2.80691729 13.8045113,2.87593985 C13.9425564,2.99097744 13.8965414,2.82992481 13.8965414,2.62285714 C13.8965414,2.55383459 13.8735338,2.50781955 13.8505263,2.43879699 C13.8505263,2.43879699 13.8505263,2.43879699 13.8735338,2.46180451 C14.0115789,2.66887218 13.9885714,2.64586466 14.0115789,2.82992481 C14.0345865,3.01398496 14.103609,3.10601504 14.1956391,3.17503759 C14.3336842,3.29007519 14.2646617,3.15203008 14.2416541,2.94496241 C14.2186466,2.92195489 14.1956391,2.87593985 14.1726316,2.78390977 Z M14.4947368,3.19804511 C14.4947368,3.17503759 14.4717293,3.15203008 14.4717293,3.12902256 C14.4027068,3.06 14.3566917,2.99097744 14.2646617,2.89894737 C14.2876692,2.94496241 14.2876692,2.96796992 14.3106767,3.08300752 C14.3566917,3.22105263 14.4027068,3.33609023 14.4947368,3.40511278 C14.5867669,3.54315789 14.5407519,3.38210526 14.4947368,3.19804511 Z M11.0896241,15.4840602 C10.8365414,15.5990977 10.6984962,15.6911278 10.7215038,15.7371429 C10.7445113,15.7601504 11.043609,15.6221053 11.3427068,15.4610526 C11.5497744,15.3690226 11.5497744,15.3920301 11.7108271,15.3920301 C11.8028571,15.346015 11.9409023,15.3 12.0329323,15.2079699 C11.9869173,15.2079699 11.9178947,15.2079699 11.8258647,15.2079699 C11.6418045,15.2079699 11.572782,15.2769925 11.0896241,15.4840602 Z M8.8118797,7.17834586 C8.99593985,6.94827068 9.04195489,7.06330827 9.47909774,7.24736842 C9.87022556,7.43142857 9.98526316,7.3393985 9.98526316,7.20135338 C9.98526316,6.92526316 9.70917293,6.8562406 9.22601504,6.62616541 C8.74285714,6.39609023 8.76586466,6.60315789 8.35172932,7.04030075 C8.12165414,7.29338346 8.0756391,7.47744361 8.23669173,7.66150376 C8.28270677,7.79954887 8.55879699,7.50045113 8.8118797,7.17834586 Z M2.09368421,7.77654135 C1.72556391,7.91458647 1.49548872,7.9606015 1.49548872,8.21368421 C1.49548872,8.35172932 1.56451128,8.4437594 1.86360902,8.30571429 C2.2087218,8.19067669 2.23172932,8.09864662 2.36977444,8.3287218 C2.55383459,8.67383459 2.73789474,8.97293233 2.80691729,8.85789474 C2.92195489,8.71984962 2.87593985,8.51278195 2.73789474,8.25969925 C2.43879699,7.79954887 2.46180451,7.5924812 2.09368421,7.77654135 Z M3.06,5.3837594 C2.64586466,5.15368421 2.62285714,5.0156391 2.30075188,5.29172932 C1.97864662,5.56781955 1.74857143,5.68285714 1.8406015,5.86691729 C1.88661654,5.95894737 1.97864662,5.98195489 2.23172932,5.79789474 C2.53082707,5.54481203 2.55383459,5.47578947 2.73789474,5.59082707 C3.01398496,5.77488722 3.29007519,5.88992481 3.31308271,5.79789474 C3.35909774,5.61383459 3.29007519,5.49879699 3.06,5.3837594 Z M2.96796992,2.59984962 C3.03699248,2.50781955 2.99097744,2.48481203 2.82992481,2.50781955 C2.62285714,2.53082707 2.55383459,2.50781955 2.43879699,2.55383459 C2.34676692,2.64586466 2.23172932,2.78390977 2.13969925,2.87593985 C2.36977444,2.73789474 2.39278195,2.6918797 2.50781955,2.66887218 C2.71488722,2.66887218 2.92195489,2.64586466 2.96796992,2.59984962 Z M3.03699248,2.25473684 C3.10601504,2.18571429 3.06,2.18571429 2.92195489,2.23172932 C2.85293233,2.25473684 2.78390977,2.25473684 2.71488722,2.27774436 C2.66887218,2.3237594 2.62285714,2.36977444 2.57684211,2.41578947 C2.59984962,2.41578947 2.59984962,2.41578947 2.62285714,2.39278195 C2.78390977,2.34676692 2.99097744,2.30075188 3.03699248,2.25473684 Z M0.943308271,11.5037594 C0.920300752,11.5037594 0.897293233,11.4807519 0.874285714,11.4807519 C0.920300752,11.572782 0.943308271,11.664812 0.989323308,11.7568421 C1.08135338,11.8028571 1.1043609,11.8028571 1.2193985,11.9639098 C1.42646617,12.286015 1.61052632,12.6311278 1.65654135,12.6081203 C1.72556391,12.5851128 1.63353383,12.4010526 1.44947368,12.1479699 C1.12736842,11.664812 1.1043609,11.572782 0.943308271,11.5037594 Z M2.27774436,6.87924812 C1.90962406,7.13233083 1.70255639,7.2243609 1.72556391,7.50045113 C1.74857143,7.63849624 1.81759398,7.7075188 2.11669173,7.52345865 C2.46180451,7.29338346 2.46180451,7.20135338 2.64586466,7.43142857 C2.87593985,7.73052632 3.08300752,8.00661654 3.17503759,7.86857143 C3.26706767,7.66150376 3.19804511,7.47744361 3.03699248,7.24736842 C2.62285714,6.83323308 2.62285714,6.60315789 2.27774436,6.87924812 Z M2.18571429,4.69353383 C1.86360902,4.99263158 1.65654135,5.13067669 1.77157895,5.29172932 C1.81759398,5.3837594 1.90962406,5.36075188 2.16270677,5.15368421 C2.46180451,4.87759398 2.46180451,4.80857143 2.66887218,4.87759398 C2.94496241,4.96962406 3.22105263,5.06165414 3.26706767,4.94661654 C3.33609023,4.80857143 3.24406015,4.69353383 2.99097744,4.62451128 C2.55383459,4.5324812 2.50781955,4.39443609 2.18571429,4.69353383 Z M2.11669173,4.60150376 C2.39278195,4.32541353 2.39278195,4.2793985 2.55383459,4.30240602 C2.82992481,4.34842105 3.08300752,4.37142857 3.10601504,4.2793985 C3.15203008,4.14135338 3.06,4.07233083 2.85293233,4.04932331 C2.46180451,4.00330827 2.41578947,3.9112782 2.13969925,4.18736842 C1.8406015,4.48646617 1.67954887,4.62451128 1.74857143,4.76255639 C1.79458647,4.85458647 1.90962406,4.85458647 2.11669173,4.60150376 Z M2.99097744,2.02466165 C2.96796992,2.02466165 2.96796992,2.02466165 2.96796992,2.04766917 C2.92195489,2.09368421 2.89894737,2.11669173 2.85293233,2.16270677 C2.99097744,2.11669173 3.10601504,2.07067669 3.15203008,2.04766917 C3.19804511,1.9556391 3.12902256,1.97864662 2.99097744,2.02466165 Z M2.02466165,3.26706767 C2.30075188,3.03699248 2.30075188,3.01398496 2.43879699,2.99097744 C2.64586466,2.96796992 2.85293233,2.94496241 2.89894737,2.87593985 C2.96796992,2.78390977 2.89894737,2.76090226 2.71488722,2.78390977 C2.39278195,2.82992481 2.36977444,2.78390977 2.09368421,3.01398496 C1.97864662,3.10601504 1.8406015,3.22105263 1.77157895,3.26706767 C1.74857143,3.31308271 1.70255639,3.35909774 1.67954887,3.38210526 L1.67954887,3.40511278 C1.72556391,3.45112782 1.79458647,3.4281203 2.02466165,3.26706767 Z M3.06,6.18902256 C2.66887218,5.86691729 2.66887218,5.68285714 2.30075188,6.00496241 C1.9556391,6.32706767 1.72556391,6.44210526 1.77157895,6.69518797 C1.79458647,6.83323308 1.88661654,6.87924812 2.16270677,6.62616541 C2.48481203,6.35007519 2.50781955,6.25804511 2.6918797,6.39609023 C2.94496241,6.62616541 3.19804511,6.81022556 3.26706767,6.69518797 C3.33609023,6.51112782 3.26706767,6.35007519 3.06,6.18902256 Z M2.00165414,3.61218045 C2.25473684,3.38210526 2.25473684,3.33609023 2.41578947,3.33609023 C2.66887218,3.33609023 2.87593985,3.33609023 2.92195489,3.26706767 C2.96796992,3.15203008 2.89894737,3.12902256 2.6918797,3.12902256 C2.3237594,3.15203008 2.30075188,3.08300752 2.04766917,3.33609023 C1.77157895,3.58917293 1.61052632,3.70421053 1.67954887,3.7962406 C1.72556391,3.84225564 1.79458647,3.7962406 2.00165414,3.61218045 Z"/>
  </g>
</svg>
