<svg xmlns="http://www.w3.org/2000/svg" width="17" height="17" viewBox="0 0 17 17">
  <defs>
    <radialGradient id="soccer-02-a" cx="42.736%" cy="39.724%" r="75.977%" fx="42.736%" fy="39.724%">
      <stop offset="0%" stop-color="#FFF"/>
      <stop offset="43.27%" stop-color="#D6D6E0"/>
      <stop offset="49.78%" stop-color="#C8C8D1"/>
      <stop offset="62.17%" stop-color="#A3A3AB"/>
      <stop offset="64.94%" stop-color="#9A9AA2"/>
      <stop offset="89.49%" stop-color="#D1D1D1"/>
    </radialGradient>
    <radialGradient id="soccer-02-b" cx="45.299%" cy="40.966%" r="74.032%" fx="45.299%" fy="40.966%" gradientTransform="matrix(1 0 0 .97677 0 .01)">
      <stop offset="0%" stop-color="#E6E6E6"/>
      <stop offset="43.27%" stop-color="#BDBDC7"/>
      <stop offset="49.78%" stop-color="#AFAFB8"/>
      <stop offset="62.17%" stop-color="#8A8A92"/>
      <stop offset="64.94%" stop-color="#818189"/>
      <stop offset="100%" stop-color="#B8B8B8"/>
    </radialGradient>
    <radialGradient id="soccer-02-c" cx="42.078%" cy="41.186%" r="62.197%" fx="42.078%" fy="41.186%" gradientTransform="matrix(.96772 0 0 1 .014 0)">
      <stop offset="0%" stop-color="#3B4951"/>
      <stop offset="25.01%" stop-color="#293035"/>
      <stop offset="46.06%" stop-color="#1C1F21"/>
      <stop offset="65.11%" stop-color="#060000"/>
      <stop offset="100%" stop-color="#313D4F"/>
    </radialGradient>
  </defs>
  <g fill="none">
    <circle cx="8.5" cy="8.5" r="8.45" fill="url(#soccer-02-a)" stroke="#979797" stroke-width=".1"/>
    <path fill="url(#soccer-02-b)" d="M9.60140845,6.46478873 C11.7802817,5.77042254 14.2943662,5.6028169 14.2943662,5.6028169 C14.2943662,5.6028169 15.8267606,5.17183099 13.9112676,5.31549296 C11.9957746,5.45915493 9.48169014,6.15352113 9.48169014,6.15352113 C9.48169014,6.15352113 7.47042254,7.15915493 9.60140845,6.46478873 Z M3.63943662,6.2971831 C3.63943662,6.2971831 2.46619718,5.86619718 1.02957746,5.96197183 C0.790140845,6.05774648 1.0056338,6.22535211 1.0056338,6.22535211 C1.0056338,6.22535211 3.32816901,6.32112676 3.63943662,6.8 C3.97464789,7.20704225 3.63943662,6.2971831 3.63943662,6.2971831 Z M6.77605634,4.0943662 C6.75211268,3.80704225 6.84788732,1.79577465 7.35070423,1.0056338 C7.85352113,0.263380282 7.08732394,0.909859155 7.08732394,0.909859155 C7.08732394,0.909859155 6.39295775,2.17887324 6.51267606,4.11830986 C6.8,4.35774648 6.77605634,4.38169014 6.77605634,4.0943662 Z M4.50140845,9.91267606 C4.50140845,9.91267606 3.61549296,11.6126761 3.63943662,13.4802817 C3.78309859,14.1267606 3.92676056,13.5521127 3.92676056,13.5521127 C3.92676056,13.5521127 3.97464789,11.6126761 4.81267606,10.1042254 C5.6028169,8.73943662 4.50140845,9.91267606 4.50140845,9.91267606 Z M8.76338028,9.86478873 C7.92535211,8.21267606 8.38028169,9.96056338 8.38028169,9.96056338 C8.38028169,9.96056338 9.72112676,12.2830986 11.7084507,13.2408451 C12.0915493,13.1929577 11.9478873,13.0492958 11.9478873,13.0492958 C11.9478873,13.0492958 9.57746479,11.5169014 8.76338028,9.86478873 Z M15.2521127,7.94929577 C15.3957746,8.54788732 14.8929577,11.1098592 14.0788732,12.0676056 C14.3183099,12.1873239 14.3183099,12.2112676 14.3183099,12.2112676 C14.3183099,12.2112676 15.5394366,10.6309859 15.5394366,8.21267606 C15.4915493,7.3028169 15.228169,7.87746479 15.2521127,7.94929577 Z M10.5112676,15.6591549 C10.5112676,15.6591549 7.9971831,16.0422535 6.12957746,15.443662 C5.89014085,15.5394366 5.98591549,15.7070423 5.98591549,15.7070423 C5.98591549,15.7070423 8.3084507,16.4253521 10.7985915,15.8028169 C11.6366197,15.4676056 10.5112676,15.6591549 10.5112676,15.6591549 Z M0.454929577,7.70985915 C0.454929577,7.70985915 0.407042254,7.27887324 0.311267606,7.94929577 C0.143661972,11.3971831 1.91549296,13.0014085 1.91549296,13.0014085 C1.91549296,13.0014085 2.41830986,13.3126761 2.22676056,12.9535211 C0.335211268,11.3492958 0.454929577,7.70985915 0.454929577,7.70985915 Z M13.4084507,3.4 C13.4084507,3.4 14.2464789,4.07042254 13.6478873,3.30422535 C12.3549296,1.22112676 10.5352113,0.526760563 10.343662,0.502816901 C10.128169,0.454929577 9.5056338,0.407042254 9.74507042,0.550704225 C12.043662,1.05352113 13.4084507,3.4 13.4084507,3.4 Z"/>
    <path fill="url(#soccer-02-c)" d="M9.98450704,5.89014085 C9.14647887,5.17183099 7.13521127,4.0943662 6.84788732,3.97464789 C6.63239437,3.9028169 6.6084507,3.85492958 6.39295775,3.97464789 C5.21971831,4.50140845 3.5915493,5.84225352 3.35211268,6.05774648 C3.11267606,6.2971831 3.13661972,6.20140845 3.2084507,6.56056338 C3.42394366,7.78169014 4.16619718,9.60140845 4.30985915,9.88873239 C4.45352113,10.1760563 4.45352113,10.2239437 4.69295775,10.2478873 C5.12394366,10.2957746 8.02112676,10.343662 8.42816901,10.2957746 C8.83521127,10.2478873 8.76338028,10.2239437 8.85915493,9.96056338 C8.97887324,9.52957746 10.0084507,6.53661972 10.0802817,6.36901408 C10.1521127,6.20140845 10.2,6.1056338 9.98450704,5.89014085 Z M6.34507042,15.515493 C5.17183099,14.8690141 4.02253521,13.4084507 3.95070423,13.2887324 C3.87887324,13.1690141 3.83098592,13.0971831 3.51971831,13.0492958 C3.23239437,13.0253521 2.15492958,12.7859155 2.03521127,12.7619718 C1.91549296,12.7140845 1.79577465,12.5225352 1.77183099,12.8816901 C1.74788732,13.0732394 1.79577465,13.3366197 1.84366197,13.5760563 C2.51408451,14.6535211 4.04647887,15.8267606 5.17183099,16.1859155 C5.74647887,16.1380282 6.12957746,15.8985915 6.27323944,15.7788732 C6.46478873,15.6830986 6.53661972,15.6352113 6.34507042,15.515493 Z M1.67605634,3.68732394 C0.766197183,4.66901408 0.023943662,6.8 0.143661972,8.42816901 C0.287323944,8.38028169 0.430985915,8.40422535 0.430985915,8.28450704 C0.478873239,7.63802817 1.07746479,6.48873239 1.1971831,6.2971831 C1.31690141,6.1056338 1.31690141,6.08169014 1.31690141,5.93802817 C1.29295775,5.50704225 1.7,3.9028169 1.77183099,3.71126761 C1.81971831,3.66338028 1.77183099,3.66338028 1.67605634,3.68732394 Z M14.2464789,11.8042254 C13.8873239,12.0676056 12.1873239,12.7619718 11.8042254,12.8338028 C11.4690141,12.9056338 11.4690141,12.8577465 11.3732394,13.2408451 C11.1338028,14.1028169 10.4394366,15.3478873 10.2239437,15.5394366 C10.0323944,15.7549296 10.0084507,15.8267606 10.128169,15.9225352 C10.2239437,16.0183099 10.5591549,16.2577465 11.1338028,16.3056338 C11.2535211,16.3056338 11.4211268,16.3056338 11.5887324,16.2816901 C12.7859155,15.9464789 14.2704225,14.7971831 14.8690141,13.9112676 C14.9647887,13.0732394 14.6774648,12.115493 14.5816901,11.971831 C14.5338028,11.7802817 14.4859155,11.684507 14.2464789,11.8042254 Z M6.91971831,1.29295775 C7.18309859,1.31690141 7.15915493,1.24507042 7.54225352,1.14929577 C7.90140845,1.07746479 8.95492958,0.718309859 10.1760563,0.694366197 C10.4394366,0.670422535 10.5352113,0.622535211 10.1760563,0.35915493 C9.88873239,0.215492958 9.02676056,0.11971831 8.47605634,0.11971831 C6.94366197,0.11971831 5.12394366,0.718309859 4.35774648,1.29295775 C4.5971831,1.26901408 6.17746479,1.17323944 6.91971831,1.29295775 Z M14.7253521,2.94507042 C14.7253521,2.96901408 14.7253521,2.96901408 14.7253521,2.94507042 C14.5098592,3.04084507 13.7676056,3.06478873 13.5521127,3.06478873 C13.3366197,3.06478873 13.2647887,3.08873239 13.2647887,3.30422535 C13.2647887,3.51971831 13.1450704,5.14788732 13.1211268,5.33943662 C13.0732394,5.55492958 13.1450704,5.62676056 13.3605634,5.86619718 C13.6,6.1056338 14.9408451,7.92535211 15.1802817,8.26056338 C15.4197183,8.57183099 15.443662,8.5 15.5873239,8.38028169 C15.7309859,8.26056338 16.4492958,7.82957746 16.8323944,7.85352113 L16.856338,7.85352113 C16.8802817,6.20140845 15.8985915,4.07042254 14.7253521,2.94507042 Z"/>
  </g>
</svg>
