<?xml version="1.0" encoding="UTF-8"?>
<svg width="17px" height="17px" viewBox="0 0 17 17" version="1.1" xmlns="http://www.w3.org/2000/svg" xmlns:xlink="http://www.w3.org/1999/xlink">
    <!-- Generator: Sketch 48.2 (47327) - http://www.bohemiancoding.com/sketch -->
    <title>sports icons/basketball</title>
    <desc>Created with Sketch.</desc>
    <defs>
        <radialGradient cx="48.0410286%" cy="39.6821306%" fx="48.0410286%" fy="39.6821306%" r="67.4750837%" id="radialGradient-1">
            <stop stop-color="#FF8C38" offset="0%"></stop>
            <stop stop-color="#FC822E" offset="17.98%"></stop>
            <stop stop-color="#DE5F1E" offset="44.09%"></stop>
            <stop stop-color="#DB492F" offset="65.11%"></stop>
            <stop stop-color="#B03608" offset="100%"></stop>
        </radialGradient>
        <radialGradient cx="42.6019093%" cy="39.451308%" fx="42.6019093%" fy="39.451308%" r="41.1392128%" gradientTransform="translate(0.426019,0.394513),scale(0.950437,1.000000),translate(-0.426019,-0.394513)" id="radialGradient-2">
            <stop stop-color="#8A8D87" offset="20.2%"></stop>
            <stop stop-color="#6D6A66" offset="26.51%"></stop>
            <stop stop-color="#453838" offset="35.96%"></stop>
            <stop stop-color="#000000" offset="65.11%"></stop>
            <stop stop-color="#120E0E" offset="72.28%"></stop>
            <stop stop-color="#372C2C" offset="89.33%"></stop>
            <stop stop-color="#453838" offset="98.36%"></stop>
        </radialGradient>
    </defs>
    <g id="Artboard-Copy" stroke="none" stroke-width="1" fill="none" fill-rule="evenodd">
        <g id="sports-icons/basketball" fill-rule="nonzero">
            <circle id="Oval" fill="url(#radialGradient-1)" cx="8.5" cy="8.5" r="8.5"></circle>
            <path d="M15.1980446,7.46538582 C14.6248721,7.51123962 14.0975534,7.83221622 13.6390154,8.38246182 C13.5473078,8.49709632 13.4097464,8.65758462 13.3409657,8.79514602 C12.7677932,8.35953492 12.1029131,7.85514312 11.3004716,7.35075132 C12.9053546,4.57659641 13.501454,3.01756721 13.3180388,2.375614 C13.2263312,2.3068333 13.1346236,2.2609795 13.042916,2.1921988 L13.0658429,2.2151257 C13.1116967,2.3297602 13.272185,3.13220171 10.9565681,7.12148232 C10.4063225,6.77757882 9.90193067,6.45660222 9.39753886,6.18147942 C9.71851547,5.49367241 9.78729617,4.85171921 9.81022307,4.69123091 C9.99363827,3.01756721 8.89314706,1.7336608 8.29704766,1.2751228 C8.06777866,1.1375614 7.83850966,1.0229269 7.51753306,1 C7.31119096,1.0229269 7.10484886,1.0687807 6.89850676,1.1146345 C7.47167926,1.0458538 7.79265586,1.2521959 8.02192486,1.458538 C8.61802426,1.917076 9.58095406,3.20098241 9.42046576,4.62245021 C9.42046576,4.71415781 9.35168506,5.31025721 9.05363536,5.97513731 C6.73801846,4.69123091 5.17898925,4.18683911 4.07849805,4.00342391 C3.18434895,3.86586251 2.56532264,4.00342391 2.22141914,4.25561981 C2.15263844,4.34732741 2.08385774,4.46196191 2.01507704,4.55366951 C2.47361504,4.37025431 3.96386355,3.59073971 8.84729326,6.34196772 C8.61802426,6.73172502 8.29704766,7.14440922 7.88436346,7.46538582 C6.96728746,8.15319282 5.84386935,8.68051152 4.42240155,9.04734192 C2.95507994,9.48295303 2.08385774,9.82685653 1.53361214,10.1936869 C1.30434314,10.3312483 1.07507414,10.6063711 1.05214724,10.9961284 C1.09800104,11.2024705 1.16678174,11.3858857 1.25848934,11.5922278 C1.23556244,11.3400319 1.25848934,11.1107629 1.32727004,10.9502746 C1.41897764,10.7668594 1.53361214,10.5834442 1.85458874,10.400029 C2.63410334,9.96441793 4.05557115,9.59758753 4.60581675,9.46002613 C6.07313835,9.09319572 7.26533716,8.54295012 8.22826696,7.83221622 C8.70973186,7.46538582 9.05363536,7.02977472 9.30583126,6.57123672 C9.76436927,6.84635952 10.291688,7.16733612 10.8190067,7.48831272 C6.48582256,14.8249207 5.11020855,15.6273622 4.35362085,15.5815084 C4.44532845,15.6502891 4.55996295,15.6961429 4.67459745,15.7878505 C5.06435475,15.8337043 5.61460035,15.673216 6.39411496,14.8019938 C7.40289856,13.7015026 8.89314706,11.6151547 11.1629102,7.74050862 C11.9653517,8.26782732 12.6531587,8.74929222 13.2034043,9.18490332 C12.7907201,9.98734483 12.5614511,10.9273477 12.6302318,11.5234471 C12.6531587,11.775643 12.7219394,12.0966196 12.813647,12.46345 C13.0658429,13.6327219 13.4326733,15.3063856 12.6073049,15.9483388 C12.7907201,15.8566312 12.9512084,15.7419967 13.1346236,15.6273622 C13.3180388,15.4210201 13.3868195,15.214678 13.4556002,14.9395552 C13.6390154,14.1600406 13.4097464,13.1741839 13.2263312,12.3488155 C13.1575505,12.004912 13.1116967,11.6839354 13.0887698,11.4546664 C13.042916,10.9273477 13.2263312,10.1478331 13.5702347,9.41417233 C15.8399978,11.3400319 15.9087785,12.4405231 15.8858516,12.6239383 C15.9317054,12.5322307 15.9775592,12.4175962 16.023413,12.3258886 C16.0463399,11.9132044 15.9546323,10.858567 13.7536499,9.02441502 C13.8453575,8.88685362 13.959992,8.72636532 14.0516996,8.61173082 C14.4414569,8.15319282 14.9229218,7.85514312 15.3814598,7.80928932 C16.3443896,7.74050862 16.6653662,8.10733902 16.7800007,8.35953492 C16.7800007,8.24490042 16.7800007,8.10733902 16.7570738,7.99270452 C16.4360972,7.67172792 16.0463399,7.39660512 15.1980446,7.46538582 Z" id="Shape" fill="url(#radialGradient-2)"></path>
        </g>
    </g>
</svg>