<?xml version="1.0" encoding="UTF-8"?>
<svg width="17px" height="17px" viewBox="0 0 17 17" version="1.1" xmlns="http://www.w3.org/2000/svg" xmlns:xlink="http://www.w3.org/1999/xlink">
    <!-- Generator: Sketch 48.2 (47327) - http://www.bohemiancoding.com/sketch -->
    <title>sports icons/floorball</title>
    <desc>Created with Sketch.</desc>
    <defs></defs>
    <g id="Artboard-Copy" stroke="none" stroke-width="1" fill="none" fill-rule="evenodd">
        <g id="sports-icons/floorball" fill-rule="nonzero">
            <path d="M8.49238748,0 C3.80337639,0 0,3.80337639 0,8.49238748 C0,13.1813986 3.80337639,16.984775 8.49238748,16.984775 C13.1813986,16.984775 16.984775,13.1813986 16.984775,8.49238748 C16.984775,3.80337639 13.1813986,0 8.49238748,0 Z M2.52951827,13.575688 C2.42639642,13.545358 2.33540656,13.5150281 2.26261466,13.4846981 C2.032107,13.3876423 1.80766533,13.2541905 1.64388358,13.0540128 C1.52256375,12.902363 1.43763988,12.7203832 1.35271601,12.5444695 C1.46796984,12.4656116 1.60142164,12.4231497 1.74093943,12.4231497 C2.18982277,12.4231497 2.54771624,12.859901 2.54771624,13.3997742 C2.54165025,13.4604342 2.53558426,13.5150281 2.52951827,13.575688 Z M11.8347485,5.52611785 C11.4222612,5.6959656 10.9369819,5.46545794 10.7550021,5.02264059 C10.5730224,4.57375726 10.7610681,4.07634599 11.1796215,3.91256423 C11.5921089,3.74271648 12.0773882,3.97322414 12.2593679,4.41604149 C12.4413477,4.85885884 12.2533019,5.36233609 11.8347485,5.52611785 Z M14.3885308,12.896297 C13.8365256,12.896297 13.3876423,12.4170837 13.3876423,11.8226166 C13.3876423,11.2281494 13.8365256,10.7489362 14.3885308,10.7489362 C14.940536,10.7489362 15.3894193,11.2281494 15.3894193,11.8226166 C15.3894193,12.4170837 14.940536,12.896297 14.3885308,12.896297 Z" id="Shape" fill="#6B6B6B"></path>
            <path d="M13.2557338,11.9684515 C13.2557338,11.3720912 13.7075964,10.8913517 14.2632654,10.8913517 C14.4647717,10.8913517 14.6540655,10.9582901 14.8128281,11.0678257 C14.6357468,10.897437 14.3976029,10.7879014 14.1411403,10.7879014 C13.5854714,10.7879014 13.1336088,11.2686409 13.1336088,11.8650012 C13.1336088,12.2422904 13.3167963,12.5769824 13.5915777,12.765627 C13.3839651,12.5648118 13.2557338,12.2848876 13.2557338,11.9684515 Z" id="Shape" fill="#B3B3B3"></path>
            <path d="M11.8024458,5.48759688 C11.3872207,5.65798554 10.8987205,5.42674378 10.7155329,4.98251619 C10.6178329,4.73910381 10.6300454,4.4774355 10.7277454,4.26444967 C10.5384516,4.49569143 10.4834954,4.83646876 10.6117267,5.15290485 C10.7949142,5.60321776 11.2773081,5.82837421 11.6986395,5.65798554 C11.8879333,5.57887652 12.0283771,5.4389144 12.1138647,5.26244043 C12.0283771,5.35372007 11.9245708,5.43282909 11.8024458,5.48759688 Z" id="Shape" fill="#B3B3B3"></path>
            <path d="M1.13482346,12.6926033 C1.25084225,12.6134943 1.38517979,12.5708971 1.52562359,12.5708971 C1.97748624,12.5708971 2.33775511,13.0090394 2.33775511,13.550632 C2.33775511,13.6114851 2.33164886,13.6662528 2.32554261,13.7271059 C2.34996762,13.7331912 2.36828638,13.7392766 2.39271138,13.7514472 C2.44766765,13.6236557 2.47819891,13.4776082 2.47819891,13.3193902 C2.47819891,12.7777977 2.11182379,12.3396554 1.66606739,12.3396554 C1.44624231,12.3396554 1.244736,12.4431056 1.09818595,12.6195796 C1.11039845,12.6439208 1.12261096,12.6682621 1.13482346,12.6926033 Z" id="Shape" fill="#B3B3B3"></path>
            <path d="M8.49238748,0 C3.80337639,0 0,3.80337639 0,8.49238748 C0,13.1813986 3.80337639,16.984775 8.49238748,16.984775 C13.1813986,16.984775 16.984775,13.1813986 16.984775,8.49238748 C16.984775,3.80337639 13.1813986,0 8.49238748,0 Z M2.66903606,13.3330483 C2.40819845,13.2481245 2.09276691,12.9266269 1.85619326,12.4838096 C1.58322367,11.9682004 1.51649776,11.4525911 1.66208155,11.2220835 C1.92291916,11.3070073 2.2383507,11.6285049 2.47492435,12.0713222 C2.74789395,12.5869314 2.82068584,13.1025407 2.66903606,13.3330483 Z M2.57198021,3.51220882 C2.14736083,4.00962009 1.68634551,4.31898563 1.54076173,4.19766581 C1.40124393,4.07634599 1.63175159,3.57286873 2.05637097,3.07545747 C2.48099034,2.5780462 2.94200566,2.26868065 3.08758945,2.39000048 C3.22710724,2.50525431 2.99659958,3.00873156 2.57198021,3.51220882 Z M4.65261514,9.45688006 C3.91256423,9.45688006 3.30596513,8.85634694 3.30596513,8.11629603 C3.30596513,7.37624512 3.90649824,6.77571201 4.65261514,6.77571201 C5.39266605,6.77571201 5.99926515,7.37624512 5.99926515,8.11629603 C5.99926515,8.86241293 5.39266605,9.45688006 4.65261514,9.45688006 Z M5.23495028,3.08152346 C5.11969645,2.5780462 5.59890974,2.03817299 6.3086307,1.87439124 C7.01835165,1.70454349 7.69167666,1.97751308 7.80693049,2.47492435 C7.92218432,2.97840161 7.44297103,3.51827481 6.73325007,3.68205657 C6.02352912,3.85190432 5.35020411,3.58500071 5.23495028,3.08152346 Z M7.91005234,14.8434801 C7.17000143,14.8434801 6.56946831,14.3824648 6.56946831,13.8122616 C6.56946831,13.2420585 7.17000143,12.7810432 7.91005234,12.7810432 C8.65010325,12.7810432 9.25063636,13.2420585 9.25063636,13.8122616 C9.25063636,14.3824648 8.65010325,14.8434801 7.91005234,14.8434801 Z M8.97766676,0.521675231 C8.42566158,0.485279284 7.97677824,0.376091445 7.98284423,0.279035589 C7.98891022,0.181979732 8.44385955,0.127385812 9.00193073,0.163781759 C9.55393591,0.200177705 10.0028193,0.309365544 9.99675326,0.406421401 C9.98462128,0.503477258 9.52967195,0.558071177 8.97766676,0.521675231 Z M11.5739109,3.62139666 C12.198708,3.39695499 12.908429,3.79124441 13.1571346,4.50096536 C13.4119062,5.21068632 13.1086067,5.96286921 12.4898756,6.18731088 C11.8650785,6.41175255 11.1553576,6.01746313 10.9066519,5.30774217 C10.6518803,4.59802122 10.9491139,3.84583833 11.5739109,3.62139666 Z M12.3078959,15.9778204 C11.7134287,16.287186 11.1796215,16.4509677 11.1189616,16.3357139 C11.0583017,16.2204601 11.4950531,15.8746986 12.0895202,15.565333 C12.6839873,15.2559675 13.2177945,15.0921857 13.2784544,15.2074396 C13.3391143,15.3226934 12.908429,15.6684549 12.3078959,15.9778204 Z M14.9951299,11.0097738 C14.7828202,11.7012967 14.1519571,12.3806877 13.6302819,12.216906 C13.1086067,12.0591902 12.9872869,11.3919312 13.1995965,10.7004082 C13.4119062,10.0088852 13.9396474,9.51753997 14.4613227,9.67525573 C14.9829979,9.83903749 15.2074396,10.3182508 14.9951299,11.0097738 Z M16.4570337,6.92129579 C16.287186,6.96982372 15.9960184,6.49061043 15.8201047,5.85368137 C15.6381249,5.21675231 15.632059,4.65868113 15.8079727,4.6101532 C15.9778204,4.56162527 16.268988,5.04083857 16.4449018,5.67776763 C16.6208155,6.31469669 16.6268815,6.87276787 16.4570337,6.92129579 Z" id="Shape" fill="#FFFFFF"></path>
            <path d="M15.5592671,3.37430862 C15.595663,3.693127 15.613861,4.01796083 15.613861,4.34881009 C15.613861,6.11133434 15.0679218,7.74753433 14.1337592,9.10100858 C14.224749,9.09499314 14.3096729,9.10100858 14.4006628,9.12507034 C14.922338,9.28147181 15.1467797,9.75669166 14.93447,10.442452 C14.7221603,11.1282122 14.0912972,11.8019416 13.569622,11.6395247 C13.0964747,11.4951542 12.9569569,10.947749 13.0904087,10.334174 C11.9560684,11.4410152 10.5123625,12.2410689 8.89274289,12.5779336 C9.08078861,12.7523813 9.18997645,12.9749527 9.18997645,13.2215858 C9.18997645,13.7870372 8.58944333,14.2442107 7.84939243,14.2442107 C7.10934152,14.2442107 6.5088084,13.7870372 6.5088084,13.2215858 C6.5088084,13.0531534 6.56340232,12.8907365 6.66045818,12.7523813 C5.03477258,12.6741806 3.53040679,12.1327909 2.27474665,11.2665674 C2.32327457,11.3387527 2.3718025,11.4229689 2.42033043,11.507185 C2.69330003,12.0184975 2.76002593,12.52981 2.61444214,12.7583968 C2.35360453,12.6741806 2.03817299,12.3553622 1.80159934,11.916235 C1.55289371,11.4470306 1.47403583,10.9838417 1.57715767,10.7251777 C0.970558569,10.2078497 0.436751356,9.60029019 3.55271368e-15,8.93257623 C0.485279284,13.1253387 4.07634599,16.3796923 8.43172757,16.3796923 C13.1207387,16.3796923 16.924115,12.6080108 16.924115,7.95807477 C16.924115,6.26773581 16.4206378,4.69770567 15.5592671,3.37430862 Z M12.2472359,15.3811291 C11.6527688,15.6879166 11.1189616,15.8503335 11.0583017,15.7360401 C10.9976418,15.6217468 11.4343931,15.2788666 12.0288603,14.9720791 C12.6233274,14.6652916 13.1571346,14.5028747 13.2177945,14.6171681 C13.2784544,14.7314615 12.8477691,15.0743416 12.2472359,15.3811291 Z M16.3963738,6.40007551 C16.2265261,6.44819904 15.9353585,5.97297919 15.7594448,5.34135787 C15.577465,4.70973656 15.571399,4.15631597 15.7473128,4.10819244 C15.9171605,4.06006891 16.2083281,4.53528876 16.3842418,5.16691008 C16.5601556,5.7985314 16.5662216,6.35195198 16.3963738,6.40007551 Z" id="Shape" fill="#E6E6E6"></path>
            <path d="M15.0889436,2.79682628 C15.1011453,2.79081083 15.113347,2.78479539 15.1255487,2.77276451 C14.9608257,2.56222407 14.7778001,2.35769907 14.5947745,2.16520496 C14.7594975,2.56823951 14.9608257,2.83291892 15.0889436,2.79682628 Z" id="Shape" fill="#666666"></path>
        </g>
    </g>
</svg>