<?xml version="1.0" encoding="UTF-8"?>
<svg width="15px" height="14px" viewBox="0 0 15 14" version="1.1" xmlns="http://www.w3.org/2000/svg" xmlns:xlink="http://www.w3.org/1999/xlink">
    <!-- Generator: Sketch 48.2 (47327) - http://www.bohemiancoding.com/sketch -->
    <title>sports icons/aussieRules</title>
    <desc>Created with Sketch.</desc>
    <defs></defs>
    <g id="Artboard-Copy" stroke="none" stroke-width="1" fill="none" fill-rule="evenodd" transform="translate(-1.000000, -1.000000)">
        <g id="sports-icons/aussieRules" fill-rule="nonzero">
            <ellipse id="Oval" fill="#C9CED3" transform="translate(8.500530, 8.299810) rotate(-42.864509) translate(-8.500530, -8.299810) " cx="8.50053" cy="8.29981" rx="8.48041165" ry="4.72022913"></ellipse>
            <path d="M2.48,11.2 C2.84,10.06 3.46,9.16 4.1,8.22 C4.08,8.2 4.04,8.18 4.02,8.14 C2.38,10.32 1.66,12.42 2.26,13.58 C2.06,12.24 2.3,11.8 2.48,11.2 Z" id="Shape" fill="#EFEFEF"></path>
            <path d="M2.84,11.86 C2.92,10.9 3.46,9.68 4.38,8.4 C4.34,8.38 4.3,8.36 4.26,8.32 C3.38,9.62 2.86,10.88 2.84,11.86 Z" id="Shape" fill="#EFEFEF"></path>
            <path d="M3.3,14.54 C5.12,15.56 8.6,14.38 11.58,11.62 C8.7,14.28 5.3,15.42 3.3,14.54 Z" id="Shape" fill="#E8E8E8"></path>
            <path d="M3.5,7.14 C1.88,9.42 1.26,11.8 2.02,13.3 C2.02,13.32 2.04,13.34 2.04,13.34 C1.8,12.64 1.94,11.64 2.48,10.46 C2.84,9.68 3.32,8.86 3.94,8.06 C3.88,8 3.84,7.94 3.8,7.88 C3.66,7.64 3.56,7.4 3.5,7.14 Z" id="Shape" fill="#C9CED3"></path>
            <path d="M6.18,5.8 C5.36,6.56 4.64,7.36 4.04,8.16 C4.12,8.22 4.18,8.3 4.26,8.34 C4.82,7.54 5.52,6.72 6.32,5.96 C8.44,4 10.88,2.84 12.48,2.92 C10.94,2.92 8.6,4.1 6.46,6.1 C5.64,6.86 4.94,7.64 4.38,8.42 C4.44,8.46 4.5,8.48 4.56,8.52 C5.12,7.76 5.8,7 6.6,6.26 C9.44,3.6 12.6,2.38 13.66,3.52 C13.68,3.54 13.7,3.56 13.72,3.58 C13.9,3.14 13.98,2.74 14,2.34 C12.4,1.66 9.12,3.06 6.18,5.8 Z" id="Shape" fill="#EFEFEF"></path>
            <path d="M5.42,4.98 C4.68,5.66 4.04,6.4 3.5,7.14 C3.54,7.4 3.64,7.64 3.78,7.86 C3.82,7.92 3.88,7.98 3.92,8.04 C4.54,7.24 5.26,6.44 6.06,5.68 C7.68,4.18 9.46,3.02 11.06,2.44 C12.26,2 13.26,1.92 13.96,2.2 C13.96,2.2 13.96,2.2 13.96,2.2 C13.94,2.18 13.92,2.18 13.9,2.16 C11.98,1.08 8.42,2.22 5.42,4.98 Z" id="Shape" fill="#EFEFEF"></path>
            <path d="M6.6,6.24 C5.8,6.98 5.12,7.76 4.56,8.5 C5.38,8.9 6.6,8.88 7.92,8.46 C8.34,8.34 8.76,8.16 9.18,7.96 C9.64,7.74 10.08,7.48 10.54,7.18 C12.1,6.12 13.22,4.8 13.72,3.58 C13.7,3.56 13.68,3.54 13.66,3.52 C12.6,2.38 9.44,3.6 6.6,6.24 Z" id="Shape" fill="#E8E8E8"></path>
        </g>
    </g>
</svg>