<?xml version="1.0" encoding="UTF-8"?>
<svg width="17px" height="17px" viewBox="0 0 17 17" version="1.1" xmlns="http://www.w3.org/2000/svg" xmlns:xlink="http://www.w3.org/1999/xlink">
    <!-- Generator: Sketch 48.2 (47327) - http://www.bohemiancoding.com/sketch -->
    <title>sports icons/handball</title>
    <desc>Created with Sketch.</desc>
    <defs></defs>
    <g id="Artboard-Copy" stroke="none" stroke-width="1" fill="none" fill-rule="evenodd">
        <g id="sports-icons/handball">
            <path d="M14.5577465,4.14225352 C16.8323944,7.20704225 16.784507,10.6070423 15.1323944,13.456338 C13.6239437,15.6352113 11.1338028,17.0957746 8.18873239,16.8802817 C-0.885915493,16.2098592 -1.74788732,5.26760563 4.19014085,1.67605634 C7.70985915,-0.191549296 12.2830986,1.07746479 14.5577465,4.14225352 Z" id="Shape" fill="#D5D6D6"></path>
            <path d="M2.72957746,2.82535211 C6.36901408,0.023943662 11.9478873,1.26901408 14.3422535,4.47746479 C16.7126761,7.68591549 16.5211268,10.7267606 15.0605634,13.528169 C15.3239437,13.1929577 15.7309859,12.8577465 15.9464789,12.4985915 C17.3830986,9.86478873 17.2633803,6.32112676 15.0605634,3.35211268 C13.1450704,0.766197183 9.62535211,-0.35915493 6.68028169,0.287323944 C4.86056338,0.718309859 3.44788732,1.72394366 2.44225352,3.04084507 C2.53802817,2.96901408 2.63380282,2.8971831 2.72957746,2.82535211 Z" id="Shape" fill="#FEFEFE"></path>
            <path d="M2.3943662,3.35211268 C6.03380282,0.550704225 11.6126761,1.79577465 14.0070423,5.00422535 C16.3774648,8.21267606 16.1859155,11.2535211 14.7253521,14.0549296 C14.9887324,13.7197183 15.3957746,13.384507 15.6112676,13.0253521 C17.0478873,10.3915493 16.928169,7.03943662 14.5816901,4.16619718 C14.3422535,3.85492958 14.0549296,3.56760563 13.7915493,3.28028169 C11.7323944,1.22112676 9.1943662,0.335211268 6.34507042,0.790140845 C4.52535211,1.24507042 3.11267606,2.25070423 2.13098592,3.56760563 C2.2028169,3.49577465 2.29859155,3.42394366 2.3943662,3.35211268 Z" id="Shape" fill="#E7E7E7"></path>
            <path d="M14.3422535,14.0070423 C12.4507042,15.4676056 6.84788732,14.7492958 4.35774648,11.5647887 C1.8915493,8.38028169 1.46056338,3.95070423 4.76478873,1.26901408 C4.57323944,1.34084507 4.30985915,1.48450704 4.14225352,1.58028169 C-1.79577465,5.17183099 -0.861971831,16.2098592 8.18873239,16.8802817 C11.1816901,17.0957746 13.6957746,15.6112676 15.1802817,13.384507 C15.0126761,13.5042254 14.7492958,13.7197183 14.3422535,14.0070423 Z" id="Shape" fill="#C3C3C4"></path>
            <path d="M13.1211268,15.515493 C10.7267606,16.5929577 5.31549296,16.2577465 2.94507042,13.0971831 C1.02957746,10.5352113 0.335211268,7.78169014 1.10140845,5.33943662 C-0.838028169,9.98450704 1.31690141,16.3774648 8.18873239,16.8802817 C10.056338,17.0239437 11.7323944,16.4732394 13.1211268,15.515493 Z" id="Shape" fill="#A6A6A6"></path>
            <path d="M0.215492958,7.51830986 L0.646478873,7.51830986 C0.814084507,6.20140845 1.67605634,4.54929577 2.46619718,3.54366197 L2.22676056,3.28028169 L2.60985915,2.94507042 C2.7056338,3.11267606 2.84929577,3.35211268 2.94507042,3.51971831 C3.92676056,3.42394366 4.66901408,3.35211268 5.67464789,3.32816901 C6.00985915,3.32816901 5.96197183,3.30422535 6.2971831,3.32816901 C7.11126761,2.72957746 8.16478873,1.8915493 8.97887324,1.38873239 L8.73943662,0.454929577 L9.1943662,0.526760563 L9.52957746,1.60422535 C10.1521127,1.86760563 10.6788732,2.22676056 11.2056338,2.53802817 C11.756338,2.84929577 12.3549296,3.08873239 12.8098592,3.44788732 L14.1985915,3.49577465 L14.5338028,3.85492958 L12.8816901,3.92676056 C12.8338028,4.38169014 12.7859155,4.81267606 12.7140845,5.24366197 C12.6422535,5.69859155 12.6661972,6.08169014 12.5704225,6.56056338 C12.7140845,6.8 14.2704225,9.45774648 14.5098592,10.0084507 C15.1802817,10.0802817 15.9704225,10.1042254 16.6647887,10.056338 L16.5929577,10.5352113 C15.9704225,10.5830986 15.228169,10.6549296 14.6535211,10.5830986 C14.1746479,11.6605634 13.6478873,12.6901408 12.8338028,13.671831 C13.2647887,14.1028169 13.384507,14.5577465 13.6957746,15.084507 L13.2887324,15.3478873 C13.0014085,14.8450704 12.7619718,14.4140845 12.3309859,14.0070423 L8.66760563,14.1985915 C8.02112676,14.7253521 7.4943662,15.1084507 6.6084507,15.9464789 L7.06338028,16.6887324 L6.46478873,16.6169014 L6.12957746,15.8746479 C4.95633803,15.4676056 3.73521127,15.0126761 2.60985915,14.4380282 L2.37042254,14.5098592 L2.08309859,14.1746479 L2.49014085,14.1028169 C2.41830986,13.0253521 2.17887324,11.971831 2.3943662,10.6788732 C1.72394366,9.81690141 1.07746479,8.6915493 0.622535211,7.68591549 L0.11971831,7.87746479 L0.167605634,7.4943662 L0.215492958,7.51830986 Z M6.91971831,3.56760563 C7.54225352,4.5971831 7.92535211,5.45915493 8.38028169,6.56056338 L11.8760563,6.46478873 C12.0197183,6.08169014 12.4267606,4.14225352 12.4267606,3.78309859 C11.3732394,2.99295775 10.6549296,2.7056338 9.45774648,2.17887324 C8.57183099,2.7056338 7.75774648,2.94507042 6.91971831,3.56760563 Z M8.02112676,13.7915493 C7.25492958,12.9774648 6.68028169,11.7802817 6.22535211,10.7746479 C4.9084507,11.0140845 3.97464789,10.8704225 2.75352113,10.8225352 C2.56197183,12.043662 2.7056338,12.9774648 2.77746479,14.1267606 C3.87887324,14.6774648 4.93239437,15.156338 6.08169014,15.5633803 C6.75211268,14.9408451 7.35070423,14.3661972 8.02112676,13.7915493 Z M2.63380282,3.99859155 C2.27464789,4.47746479 1.8915493,5.1 1.55633803,5.84225352 C1.29295775,6.44084507 1.07746479,7.06338028 1.02957746,7.68591549 C1.24507042,8.16478873 1.5084507,8.64366197 1.79577465,9.12253521 C2.08309859,9.57746479 2.3943662,10.0323944 2.72957746,10.4873239 C3.78309859,10.5112676 4.5971831,10.6549296 5.98591549,10.3915493 C6.53661972,9.14647887 7.15915493,7.73380282 7.85352113,6.63239437 C7.44647887,5.67464789 7.18309859,4.74084507 6.65633803,3.85492958 C5.31549296,3.80704225 3.9028169,3.85492958 2.63380282,3.99859155 Z M8.5,13.671831 L11.9957746,13.4802817 C12.7619718,12.6901408 13.456338,11.1098592 13.8873239,10.0802817 C13.384507,9.02676056 12.8816901,8.06901408 12.1873239,7.08732394 L8.23661972,7.18309859 C7.54225352,8.28450704 7.11126761,9.21830986 6.56056338,10.4633803 C6.9915493,11.3971831 7.73380282,12.9295775 8.5,13.671831 Z" id="Shape" fill="#FEFEFE"></path>
            <path d="M0.550704225,7.32676056 L0.981690141,7.32676056 C1.14929577,6.00985915 1.93943662,4.50140845 2.72957746,3.49577465 L2.53802817,3.08873239 L2.77746479,2.84929577 L2.92112676,3.13661972 C2.94507042,3.2084507 2.99295775,3.28028169 3.01690141,3.35211268 C3.99859155,3.25633803 4.95633803,3.16056338 5.96197183,3.13661972 C6.2971831,3.13661972 6.63239437,3.11267606 6.96760563,3.13661972 L7.18309859,2.96901408 C7.90140845,2.46619718 8.57183099,1.96338028 9.33802817,1.5084507 L9.07464789,0.814084507 L9.52957746,0.885915493 L9.72112676,1.48450704 C10.343662,1.74788732 10.9422535,2.03521127 11.4690141,2.34647887 C12.0197183,2.65774648 12.4985915,2.99295775 12.9774648,3.35211268 L13.815493,3.30422535 L14.1507042,3.68732394 L13.1690141,3.71126761 C13.1211268,4.16619718 13.0732394,4.5971831 13.0014085,5.02816901 C12.9295775,5.48309859 12.8338028,5.93802817 12.7380282,6.41690141 C12.8816901,6.65633803 14.4380282,9.29014085 14.6535211,9.81690141 C15.3239437,9.88873239 15.7788732,9.88873239 16.4732394,9.84084507 L16.4253521,10.1760563 C15.8028169,10.2239437 15.2521127,10.2478873 14.6774648,10.1760563 C14.1985915,11.2535211 13.6478873,12.4267606 12.8577465,13.4084507 C13.2887324,13.8394366 13.5760563,14.3422535 13.8873239,14.8690141 L13.6,15.1323944 C13.3126761,14.6295775 12.9535211,14.0309859 12.5225352,13.6239437 L8.78732394,13.8633803 C8.57183099,14.0549296 8.33239437,14.2225352 8.09295775,14.4140845 C7.59014085,14.8211268 7.11126761,15.2042254 6.65633803,15.6352113 L7.23098592,16.8323944 L6.75211268,16.7605634 L6.27323944,15.7070423 C5.1,15.3 4.04647887,14.7971831 2.92112676,14.2464789 L2.46619718,14.3901408 L2.17887324,14.0549296 L2.72957746,13.8633803 C2.65774648,12.7859155 2.49014085,11.756338 2.7056338,10.4633803 C2.03521127,9.57746479 1.43661972,8.64366197 0.981690141,7.66197183 L0.407042254,7.66197183 L0.454929577,7.27887324 L0.550704225,7.32676056 Z M7.23098592,3.37605634 C7.85352113,4.4056338 8.23661972,5.26760563 8.6915493,6.36901408 L12.4267606,6.24929577 C12.5704225,5.86619718 12.8338028,3.99859155 12.8577465,3.63943662 C11.8042254,2.84929577 10.8225352,2.25070423 9.60140845,1.72394366 C8.71549296,2.27464789 8.06901408,2.75352113 7.23098592,3.37605634 Z M8.42816901,13.6957746 C7.66197183,12.8816901 6.96760563,11.5169014 6.51267606,10.5112676 C5.19577465,10.7507042 4.30985915,10.6788732 3.08873239,10.6309859 C2.8971831,11.8521127 3.04084507,12.7859155 3.11267606,13.9352113 C4.21408451,14.4859155 5.26760563,14.9647887 6.41690141,15.371831 C7.06338028,14.7492958 7.73380282,14.2464789 8.42816901,13.6957746 Z M2.99295775,3.73521127 C2.63380282,4.21408451 2.2028169,4.88450704 1.86760563,5.65070423 C1.60422535,6.24929577 1.38873239,6.87183099 1.34084507,7.4943662 C1.55633803,7.97323944 1.81971831,8.45211268 2.10704225,8.93098592 C2.3943662,9.38591549 2.7056338,9.84084507 3.04084507,10.2957746 C4.0943662,10.3197183 5.12394366,10.415493 6.51267606,10.1760563 C7.06338028,8.93098592 7.68591549,7.68591549 8.38028169,6.58450704 C7.97323944,5.62676056 7.44647887,4.42957746 6.89577465,3.54366197 C5.57887324,3.49577465 4.28591549,3.5915493 2.99295775,3.73521127 Z M8.83521127,13.4802817 L12.5464789,13.2408451 C13.2408451,12.5464789 13.815493,11.2535211 14.2943662,10.2 L14.3661972,10.0323944 C13.8633803,8.97887324 13.1450704,7.59014085 12.4507042,6.6084507 L8.71549296,6.72816901 C8.02112676,7.82957746 7.39859155,9.07464789 6.84788732,10.2957746 C7.27887324,11.2774648 8.06901408,12.7140845 8.83521127,13.4802817 Z" id="Shape" fill="#4D4D4D"></path>
        </g>
    </g>
</svg>