<?xml version="1.0" encoding="UTF-8"?>
<svg width="17px" height="15px" viewBox="0 0 17 15" version="1.1" xmlns="http://www.w3.org/2000/svg" xmlns:xlink="http://www.w3.org/1999/xlink">
    <!-- Generator: Sketch 48.2 (47327) - http://www.bohemiancoding.com/sketch -->
    <title>sports icons/rugbyUnion</title>
    <desc>Created with Sketch.</desc>
    <defs></defs>
    <g id="Artboard-Copy" stroke="none" stroke-width="1" fill="none" fill-rule="evenodd" transform="translate(0.000000, -1.000000)">
        <g id="sports-icons/rugbyUnion" fill-rule="nonzero">
            <path d="M15.2085074,3.51204858 C16.1070985,5.01851012 14.0191957,8.2428664 10.4512605,10.8329231 C6.80403779,13.4758381 2.99824022,14.4272874 1.94107422,12.9736842 C1.17462888,11.9165182 2.07321997,9.90790283 3.97611876,7.8728583 C3.89683131,7.82 3.84397301,7.79357085 3.79111471,7.74071255 C2.54894467,9.06217004 1.75607018,10.4100567 1.51820783,11.4936518 C1.67678273,10.3571984 2.44322807,8.98288259 3.65896896,7.63499595 C3.57968151,7.5557085 3.50039406,7.47642105 3.42110661,7.3971336 C1.01605398,9.90790283 -0.12039946,12.4715304 0.831049933,13.7929879 C2.09964912,15.5637409 6.61903374,14.5065749 10.8741269,11.4143644 C15.12922,8.348583 17.5607018,4.41063968 16.2656734,2.63988664 C16.1070985,2.42845344 15.9220945,2.26987854 15.7106613,2.13773279 C15.657803,2.58702834 15.4727989,3.06275304 15.2085074,3.51204858 Z M10.715552,11.2029312 C8.01977868,13.1586883 5.03328475,14.162996 3.20967341,13.8458462 C4.98042645,14.0572794 7.83477463,13.0265425 10.5834062,11.0443563 C13.3584669,9.06217004 15.2349366,6.65711741 15.5785155,4.91279352 C15.314224,6.73640486 13.4377544,9.24717409 10.715552,11.2029312 Z" id="Shape" fill="#D6D7D8"></path>
            <path d="M1.22748718,10.7007773 C1.80892848,9.43217814 2.62823212,8.48072874 3.52682321,7.5028502 C3.50039406,7.47642105 3.47396491,7.4499919 3.44753576,7.3971336 C1.22748718,9.67004049 0.0910337382,11.9958057 0.619616734,13.3965506 C0.593187584,11.8372308 0.910337382,11.3615061 1.22748718,10.7007773 Z" id="Shape" fill="#EFEFEF"></path>
            <path d="M3.20967341,13.8458462 C5.03328475,14.162996 8.01977868,13.1586883 10.715552,11.2029312 C13.4377544,9.24717409 15.314224,6.73640486 15.5785155,4.91279352 C15.2349366,6.65711741 13.3584669,9.06217004 10.6098354,11.0443563 C7.86120378,13.0265425 5.0068556,14.0572794 3.20967341,13.8458462 Z" id="Shape" fill="#B22020"></path>
            <path d="M1.54463698,11.520081 C1.75607018,10.4364858 2.57537382,9.08859919 3.81754386,7.7671417 C3.76468556,7.74071255 3.73825641,7.68785425 3.68539811,7.6614251 C2.46965722,9.00931174 1.70321188,10.3836275 1.54463698,11.520081 Z" id="Shape" fill="#B22020"></path>
            <path d="M16.714969,3.30061538 C16.8735439,4.17277733 16.5828232,5.28280162 15.7899487,6.57782996 C14.7592119,8.26929555 13.0413171,10.0136194 10.9798435,11.520081 C8.89194062,13.0265425 6.69832119,14.1101377 4.76899325,14.5594332 C3.31539001,14.9030121 2.12607827,14.8501538 1.35963293,14.4008583 C1.38606208,14.4008583 1.38606208,14.4272874 1.41249123,14.4272874 C1.51820783,14.5065749 1.62392443,14.5594332 1.72964103,14.6387206 C1.72964103,14.6387206 1.72964103,14.6387206 1.72964103,14.6387206 C1.70321188,14.6387206 1.70321188,14.6122915 1.67678273,14.6122915 C2.39036977,15.0087287 3.52682321,15.0087287 4.9539973,14.6387206 C6.83046694,14.162996 9.05051552,13.1586883 11.0855601,11.6786559 C13.1470337,10.1986235 14.785641,8.4014413 15.8163779,6.76283401 C16.6092524,5.52066397 16.9528313,4.43706883 16.8206856,3.64419433 C16.8206856,3.67062348 16.8206856,3.67062348 16.8471147,3.69705263 C16.8471147,3.69705263 16.8471147,3.69705263 16.8471147,3.69705263 C16.8206856,3.56490688 16.7942564,3.45919028 16.7413981,3.35347368 C16.714969,3.35347368 16.714969,3.32704453 16.714969,3.30061538 Z" id="Shape" fill="#EFEFEF"></path>
            <path d="M1.70321188,14.6651498 C3.65896896,16.0923239 7.83477463,15.2201619 11.6405722,12.4715304 C7.94049123,15.1144453 3.87040216,15.9601781 1.70321188,14.6651498 Z" id="Shape" fill="#C9CED3"></path>
            <path d="M16.7942564,3.67062348 C16.9264022,4.48992713 16.6092524,5.54709312 15.7899487,6.78926316 C14.785641,8.4014413 13.1206046,10.1986235 11.0855601,11.705085 C9.02408637,13.1851174 6.80403779,14.1894251 4.9539973,14.6651498 C3.52682321,15.0351579 2.39036977,15.0087287 1.67678273,14.6387206 C1.70321188,14.6387206 1.70321188,14.6651498 1.72964103,14.6651498 C1.72964103,14.6651498 1.72964103,14.6651498 1.72964103,14.6651498 C3.89683131,15.9601781 7.99334953,15.1144453 11.6670013,12.4715304 C15.3406532,9.80218623 17.4021269,6.18139271 16.8735439,3.72348178 C16.8735439,3.72348178 16.8735439,3.72348178 16.8735439,3.72348178 C16.8206856,3.69705263 16.8206856,3.67062348 16.7942564,3.67062348 Z" id="Shape" fill="#C9CED3"></path>
            <path d="M2.97181107,6.18139271 C0.778191633,8.56001619 -0.252545209,11.2029312 0.381754386,13.0529717 C0.381754386,13.0794008 0.408183536,13.0794008 0.408183536,13.10583 C0.249608637,12.233668 0.540329285,11.1236437 1.33320378,9.82861538 C1.83535762,8.98288259 2.52251552,8.11072065 3.34181916,7.26498785 C3.28896086,7.1857004 3.23610256,7.10641296 3.20967341,7.02712551 C3.07752767,6.78926316 2.99824022,6.49854251 2.97181107,6.18139271 Z" id="Shape" fill="#C9CED3"></path>
            <path d="M1.94107422,13.0001134 C2.99824022,14.4537166 6.80403779,13.5022672 10.4512605,10.8593522 C14.0191957,8.26929555 16.1335277,5.01851012 15.2085074,3.53847773 C14.4684912,4.88636437 12.9884588,6.23425101 11.0327018,7.2385587 C8.28407018,8.63930364 5.429722,8.87716599 3.97611876,7.9257166 C2.07321997,9.93433198 1.20105803,11.9429474 1.94107422,13.0001134 Z" id="Shape" fill="#C9CED3"></path>
            <path d="M6.22259649,4.99208097 C5.1654305,5.75852632 4.21398111,6.57782996 3.42110661,7.3971336 C3.50039406,7.47642105 3.57968151,7.58213765 3.65896896,7.63499595 C4.39898516,6.78926316 5.3240054,5.94353036 6.38117139,5.20351417 C9.07694467,3.24775709 12.0634386,2.24344939 13.8870499,2.56059919 C12.1162969,2.34916599 9.26194872,3.37990283 6.51331714,5.36208907 C5.4825803,6.12853441 4.55756005,6.92140891 3.79111471,7.74071255 C3.84397301,7.79357085 3.92326046,7.84642915 3.97611876,7.8728583 C4.71613495,7.07998381 5.61472605,6.28710931 6.64546289,5.54709312 C10.2926856,2.90417814 14.0984831,1.95272874 15.1556491,3.40633198 C15.1820783,3.43276113 15.2085074,3.45919028 15.2085074,3.48561943 C15.4727989,3.00989474 15.6313738,2.53417004 15.7106613,2.11130364 C13.9663374,1.1334251 10.0019649,2.26987854 6.22259649,4.99208097 Z" id="Shape" fill="#EFEFEF"></path>
            <path d="M6.51331714,5.38851822 C9.26194872,3.40633198 12.1162969,2.37559514 13.8870499,2.58702834 C12.0634386,2.26987854 9.07694467,3.27418623 6.38117139,5.22994332 C5.35043455,5.99638866 4.4254143,6.81569231 3.65896896,7.6614251 C3.71182726,7.68785425 3.73825641,7.74071255 3.79111471,7.7671417 C4.55756005,6.94783806 5.45615115,6.12853441 6.51331714,5.38851822 Z" id="Shape" fill="#D66969"></path>
            <path d="M5.4825803,3.96134413 C4.5311309,4.64850202 3.68539811,5.38851822 2.97181107,6.18139271 C2.99824022,6.49854251 3.05109852,6.78926316 3.20967341,7.05355466 C3.26253171,7.13284211 3.28896086,7.21212955 3.34181916,7.291417 C4.16112281,6.44568421 5.1125722,5.65280972 6.14330904,4.88636437 C8.23121188,3.37990283 10.4248313,2.29630769 12.3541592,1.84701215 C13.8077625,1.5034332 14.9442159,1.5562915 15.7106613,1.97915789 C15.7106613,1.97915789 15.7106613,1.97915789 15.7106613,1.97915789 C15.6842321,1.95272874 15.657803,1.95272874 15.657803,1.9262996 C13.5699001,0.419838057 9.31480702,1.21271255 5.4825803,3.96134413 Z" id="Shape" fill="#EFEFEF"></path>
            <path d="M12.3541592,1.8734413 C10.4248313,2.32273684 8.23121188,3.40633198 6.14330904,4.91279352 C5.1125722,5.65280972 4.16112281,6.47211336 3.34181916,7.31784615 C3.36824831,7.3442753 3.39467746,7.3971336 3.42110661,7.42356275 C4.21398111,6.60425911 5.1654305,5.78495547 6.22259649,5.01851012 C10.0019649,2.26987854 13.9663374,1.1334251 15.7106613,2.13773279 C15.7106613,2.08487449 15.7106613,2.03201619 15.7370904,1.97915789 C14.9706451,1.58272065 13.8077625,1.52986235 12.3541592,1.8734413 Z" id="Shape" fill="#585F63"></path>
            <path d="M6.64546289,5.57352227 C5.61472605,6.31353846 4.71613495,7.10641296 3.97611876,7.89928745 C4.87470985,8.48072874 6.27545479,8.61287449 7.83477463,8.348583 C8.33692848,8.26929555 8.83908232,8.11072065 9.36766532,7.95214575 C9.92267746,7.7671417 10.4776896,7.52927935 11.0327018,7.2385587 C12.9620297,6.23425101 14.4684912,4.85993522 15.2085074,3.53847773 C15.1820783,3.51204858 15.1820783,3.48561943 15.1556491,3.45919028 C14.0984831,1.97915789 10.2926856,2.93060729 6.64546289,5.57352227 Z" id="Shape" fill="#E8E8E8"></path>
        </g>
    </g>
</svg>