<?xml version="1.0" encoding="utf-8"?>
<!-- Generator: Adobe Illustrator 25.0.0, SVG Export Plug-In . SVG Version: 6.00 Build 0)  -->
<svg version="1.1" id="Layer_1" focusable="false" xmlns="http://www.w3.org/2000/svg" xmlns:xlink="http://www.w3.org/1999/xlink"
	 x="0px" y="0px" viewBox="0 0 640 512" style="enable-background:new 0 0 640 512;" xml:space="preserve">
<style type="text/css">
	.st0{fill:none;}
	.st1{fill:#FFFFFF;}
</style>
<path class="st0" d="M8.3,342.1v47.8c20.1,7.3,41.2,11.8,63.7,13.6C70.5,369.3,42.7,342.1,8.3,342.1z"/>
<ellipse class="st0" cx="246.2" cy="249.2" rx="60.4" ry="72.5"/>
<path class="st0" d="M558,501.6c-0.6-0.7-1.1-1.3-1.6-2.1C556.9,500.2,557.4,500.9,558,501.6z"/>
<path class="st0" d="M451.9,434.1c-0.5,2.2-0.6,4.3-0.4,6.3C451.3,438.4,451.4,436.2,451.9,434.1l12.1-51.2l0,0L451.9,434.1z"/>
<path class="st0" d="M71,113.8c-21.6-1.4-42.6-3.9-62.7-8.9v60.5C39.3,165.3,65.1,143.2,71,113.8z"/>
<path class="st0" d="M410.7,336.4c14.1,1.2,27.8,3.1,41,6.4v-40.5h-12C425.2,308.1,414.2,320.7,410.7,336.4z"/>
<path class="st0" d="M561.9,505.1c-1.1-0.8-2.1-1.6-3-2.6C559.8,503.5,560.8,504.3,561.9,505.1z"/>
<path class="st1" d="M451.7,302.3v40.5c-13.2-3.3-27-5.2-41-6.4c3.5-15.6,14.5-28.2,29-34.1h-42.6c-9.6,0-18.7-4.1-25-11.3
	c-6.3-7.2-9.2-16.8-8-26.3l24.2-181.3c0.1-1.1,0.4-2.2,0.6-3.3c-1,0-2.1,0-3.1,0c-93,0-186.1,47.1-279.1,47.1
	c-23.3,0-46.7-3-70-10.4c-2.6-0.8-5.3-1.2-7.8-1.2c-13,0-24.4,10.1-24.4,24v239.7c0,9.5,5.5,18.6,14.2,22.3
	c29.3,12.3,58.6,17,87.9,17c93,0,186.1-47.1,279.1-47.1c21.2,0,42.3,2.4,63.5,8.4l18.4-77.5H451.7z M40.7,155.7
	c15.2,3.8,31.1,5.7,47.4,6.7c-4.4,22.2-24,38.9-47.4,38.9V155.7z M40.7,371v-36.1c26,0,47,20.6,48.1,46.4
	C71.8,379.9,55.9,376.5,40.7,371z M246.2,321.7c-33.4,0-60.4-32.5-60.4-72.5c0-40.1,27.1-72.5,60.4-72.5s60.4,32.5,60.4,72.5
	C306.6,289.3,279.6,321.7,246.2,321.7z"/>
<path class="st1" d="M617.4,176.7h-87.2l32.2-98.1c3-11.5-5.7-22.8-17.5-22.8H436.1c-9.1,0-16.8,6.7-18,15.7l-24.2,181.3
	c-1.4,10.9,7,20.5,18,20.5h89.7l-34.8,146.9c-2.7,11.5,6,22.3,17.6,22.3c6.3,0,12.4-3.3,15.7-9.1l133-229.7
	C640.1,191.9,631.4,176.7,617.4,176.7z"/>
</svg>
