<?xml version="1.0" encoding="utf-8"?>
<!-- Generator: Adobe Illustrator 25.2.0, SVG Export Plug-In . SVG Version: 6.00 Build 0)  -->
<svg version="1.1" id="Layer_1" xmlns="http://www.w3.org/2000/svg" xmlns:xlink="http://www.w3.org/1999/xlink" x="0px" y="0px"
	 viewBox="0 0 280.7 100.7" style="enable-background:new 0 0 280.7 100.7;" xml:space="preserve">
<style type="text/css">
	.st0{fill:#FFFDFE;}
	.st1{fill:#FECE00;}
	.st2{fill:#0B519C;}
	.st3{fill:#FFFFFF;}
</style>
<path class="st0" d="M80.3,64V36.1h4.8v2.3c1.1-1.8,3.1-2.9,5.3-2.8c1.1,0,2.3,0.2,3.3,0.7s1.9,1.1,2.6,2c0.8,1,1.3,2,1.7,3.2
	c0.4,1.4,0.6,2.8,0.6,4.3c0,1.3-0.2,2.7-0.5,3.9c-0.3,1.1-0.8,2.2-1.5,3.1c-0.7,0.8-1.5,1.5-2.4,2c-1,0.5-2.1,0.7-3.3,0.7
	c-2.3,0-4.4-1.1-5.6-3V64H80.3z M89.2,51.2c2.9,0,4.3-1.9,4.3-5.8c0.1-1.5-0.4-2.9-1.2-4.1c-0.7-1-1.9-1.6-3.1-1.6
	c-0.6,0-1.2,0.1-1.7,0.4c-0.5,0.3-1,0.7-1.3,1.1c-0.4,0.5-0.7,1.1-0.9,1.7c-0.2,0.7-0.3,1.4-0.3,2.2C85.1,49.2,86.4,51.2,89.2,51.2z
	"/>
<path class="st0" d="M100.4,33.8v-4.6h5v4.7L100.4,33.8z M100.4,55V36.1h5V55H100.4z"/>
<path class="st0" d="M118.2,42.5h4.6v5.4c0,1-0.1,1.9-0.4,2.9c-0.3,0.9-0.8,1.7-1.4,2.4c-0.7,0.7-1.5,1.3-2.4,1.7
	c-1.1,0.4-2.3,0.6-3.4,0.6c-1.2,0-2.4-0.2-3.5-0.6c-0.9-0.4-1.7-0.9-2.4-1.7c-0.6-0.7-1.1-1.5-1.4-2.4s-0.4-1.9-0.4-2.9V31h5v5.1
	h10.4v3.5h-10.4v7.8c-0.1,1,0.2,2,0.7,2.8c0.5,0.7,1.3,1.1,2.2,1c0.9,0.1,1.7-0.3,2.2-1c0.5-0.8,0.8-1.8,0.7-2.7L118.2,42.5z"/>
<path class="st0" d="M141.7,48.2c-0.2,2.1-1.2,4-2.8,5.3c-0.8,0.7-1.7,1.2-2.6,1.5c-1,0.4-2.1,0.5-3.2,0.5c-1.2,0-2.4-0.2-3.5-0.6
	c-1.1-0.4-2-1.1-2.8-1.9c-0.8-0.9-1.4-2-1.8-3.2c-0.5-1.4-0.7-2.9-0.6-4.5c0-1.5,0.2-3,0.6-4.4c0.4-1.1,1-2.1,1.8-3
	c0.8-0.8,1.7-1.4,2.8-1.8c1.2-0.4,2.4-0.6,3.6-0.6c1.1,0,2.3,0.2,3.4,0.5c1,0.3,1.9,0.8,2.6,1.5c0.8,0.6,1.4,1.4,1.8,2.3
	c0.4,0.9,0.7,2,0.8,3h-5c-0.1-0.9-0.5-1.7-1.2-2.3s-1.5-0.8-2.4-0.8c-0.5,0-1,0.1-1.5,0.3s-0.9,0.5-1.2,0.9
	c-0.4,0.5-0.7,1.1-0.8,1.7c-0.2,0.8-0.3,1.7-0.3,2.6c0,0.9,0.1,1.8,0.3,2.7c0.2,0.7,0.4,1.3,0.8,1.9c0.3,0.5,0.7,0.9,1.2,1.1
	c0.4,0.2,0.9,0.4,1.4,0.4c0.9,0,1.8-0.3,2.5-0.8c0.7-0.6,1.1-1.4,1.2-2.3L141.7,48.2z"/>
<path class="st0" d="M155.1,55V43.3c0.1-1-0.2-2.1-0.8-2.9c-0.7-0.6-1.6-0.9-2.5-0.8c-0.6,0-1.1,0.1-1.7,0.4c-0.5,0.2-0.9,0.6-1.2,1
	s-0.6,0.9-0.8,1.5s-0.3,1.2-0.3,1.8V55h-5V29.2h5v9.4c0.2-0.4,0.5-0.8,0.8-1.2c0.4-0.4,0.8-0.7,1.3-0.9c1.1-0.6,2.2-0.9,3.4-0.8
	c1.7-0.1,3.4,0.5,4.7,1.6s1.9,2.8,1.8,4.5V55H155.1z"/>
<path class="st1" d="M167.1,49.5c0.1,1.6,1,2.3,2.7,2.3c1.3,0,2.6-0.8,3.1-2c0.8-1.9,1.2-4,1.3-6.1c-0.6,0.7-1.3,1.3-2.1,1.7
	c-1,0.5-2.1,0.7-3.1,0.7s-1.9-0.2-2.8-0.6c-0.9-0.4-1.7-0.9-2.3-1.7c-0.7-0.8-1.2-1.7-1.5-2.7c-0.8-2.3-0.7-4.9,0.1-7.2
	c0.4-1.1,1-2,1.7-2.9c0.7-0.8,1.6-1.5,2.6-1.9c1.1-0.5,2.3-0.7,3.4-0.7c2.7-0.2,5.2,1.1,6.7,3.2s2.2,5.3,2.2,9.6
	c0,2.2-0.2,4.4-0.6,6.6c-0.3,1.6-0.9,3.1-1.8,4.5c-0.7,1.1-1.8,2-3,2.6c-1.3,0.6-2.7,0.9-4.2,0.8c-1.8,0.1-3.6-0.5-5.1-1.6
	c-1.4-1.2-2.2-2.9-2.4-4.8h5.1V49.5z M170.3,42.2c1.1,0,2.1-0.4,2.8-1.3c0.7-1,1.1-2.2,1-3.4c0.1-1.3-0.3-2.5-1-3.5
	c-0.7-0.9-1.7-1.4-2.9-1.4c-1.1,0-2.1,0.5-2.6,1.4c-0.6,1-1,2.2-0.9,3.4c-0.1,1.2,0.3,2.5,1,3.5C168.3,41.8,169.3,42.3,170.3,42.2z"
	/>
<path class="st1" d="M189,55.9c-1.3,0-2.5-0.3-3.7-0.8c-1.1-0.6-2.1-1.4-2.7-2.5c-0.8-1.3-1.4-2.8-1.7-4.3c-0.4-2-0.6-4.1-0.6-6.2
	c0-2.1,0.2-4.1,0.6-6.1c0.3-1.5,0.9-2.9,1.7-4.2c0.7-1,1.6-1.9,2.7-2.4c1.2-0.5,2.4-0.8,3.7-0.8s2.6,0.2,3.7,0.8
	c1.1,0.5,2.1,1.4,2.8,2.4c0.8,1.3,1.4,2.7,1.8,4.2c0.4,2,0.6,4.1,0.6,6.1c0,4.8-0.8,8.3-2.4,10.5C194.1,54.7,191.6,56,189,55.9z
	 M189.2,51.9c0.6,0,1.1-0.2,1.6-0.5c0.5-0.5,0.9-1,1.1-1.7c0.3-1,0.6-2,0.7-3c0.2-1.5,0.2-3,0.2-4.5s-0.1-3-0.2-4.5
	c-0.1-1-0.3-2-0.7-3c-0.2-0.6-0.6-1.2-1.1-1.7c-0.5-0.4-1-0.5-1.6-0.5s-1.1,0.2-1.6,0.5c-0.5,0.4-0.9,1-1.1,1.6c-0.4,1-0.6,2-0.7,3
	c-0.2,1.5-0.2,3-0.2,4.5s0.1,3,0.2,4.5c0.1,1,0.3,2,0.7,3c0.2,0.6,0.6,1.2,1.1,1.7C188,51.7,188.6,51.9,189.2,51.9L189.2,51.9z"/>
<path class="st0" d="M199.3,55V29.2h4.9v9.4c1.2-1.9,3.4-3,5.6-3c1.1,0,2.3,0.2,3.3,0.7s1.8,1.2,2.4,2c0.7,0.9,1.2,2,1.5,3.1
	c0.4,1.3,0.5,2.6,0.5,3.9c0,1.4-0.2,2.9-0.6,4.3c-0.4,1.2-0.9,2.2-1.7,3.2c-0.7,0.9-1.6,1.5-2.6,2s-2.2,0.7-3.3,0.7
	c-2.1,0.1-4.2-1-5.3-2.8V55H199.3z M208.3,51.4c1.2,0,2.4-0.6,3.1-1.6c0.8-1.2,1.3-2.7,1.2-4.1c0-3.9-1.4-5.8-4.3-5.8
	c-2.8,0-4.2,2-4.2,6.2c0,0.7,0.1,1.5,0.3,2.2c0.2,0.6,0.5,1.2,0.9,1.7c0.3,0.5,0.8,0.9,1.3,1.1C207.2,51.3,207.7,51.4,208.3,51.4
	L208.3,51.4z"/>
<path class="st0" d="M223.9,46.8c0,1.3,0.4,2.5,1.3,3.4c0.8,0.8,1.9,1.3,3,1.3c0.8,0,1.5-0.2,2.2-0.5c0.6-0.3,1-0.9,1.2-1.5h5.2
	c-0.5,1.8-1.6,3.4-3.1,4.5s-3.4,1.6-5.2,1.6c-6.3,0-9.5-3.4-9.5-10.3c0-1.4,0.2-2.7,0.6-4c0.4-1.1,1-2.1,1.8-3s1.8-1.5,2.9-2
	c1.2-0.5,2.6-0.7,3.9-0.7c2.9,0,5.2,0.9,6.7,2.8c1.5,1.9,2.2,4.7,2.2,8.5L223.9,46.8z M231.8,43.7c0-1.2-0.4-2.3-1.2-3.1
	c-0.7-0.7-1.7-1-2.6-1c-1,0-1.9,0.4-2.6,1.1c-0.8,0.8-1.2,1.9-1.3,3.1L231.8,43.7z"/>
<path class="st0" d="M249.2,46.8v0.6c0.1,1-0.2,1.9-0.7,2.7c-0.5,0.7-1.3,1.1-2.2,1c-0.9,0.1-1.7-0.3-2.2-1
	c-0.5-0.8-0.7-1.8-0.7-2.8v-7.7h10.4v-3.5h-10.4V31h-5v16.9c0,1,0.1,2,0.4,2.9c0.3,0.9,0.7,1.7,1.4,2.4s1.5,1.3,2.4,1.7
	c1.1,0.4,2.3,0.7,3.5,0.6c1.2,0,2.3-0.2,3.4-0.6c1.8-0.7,3.2-2.2,3.8-4.1c0.3-0.9,0.5-1.9,0.5-2.9v-1.1
	C253.8,46.8,249.2,46.8,249.2,46.8z"/>
<rect x="26.9" y="28.6" class="st1" width="43.5" height="43.6"/>
<path class="st2" d="M56.1,35.4c5.6-2.3,11.9,0.4,14.2,6l0.1,0.4v-4.6c-4.6-5.7-13-6.5-18.6-1.9c-2.7,2.2-4.5,5.4-4.8,8.9
	c-0.2,2.1,0.1,4.3,0.9,6.3c0.6,1.4,1.4,2.7,2.4,3.9C54,58.6,60,60,65.1,57.9c2.1-0.8,3.9-2.2,5.3-3.9v-4.7c-2.1,5.7-8.3,8.6-14,6.5
	c-5.7-2.1-8.6-8.3-6.5-14C51,38.9,53.2,36.6,56.1,35.4z"/>
<path class="st2" d="M66.2,43.2c-1.3-3.3-5.1-4.9-8.4-3.5c-3.3,1.3-4.9,5.1-3.5,8.4c1.3,3.3,5.1,4.9,8.4,3.6
	C65.9,50.3,67.5,46.5,66.2,43.2L66.2,43.2z M61.7,49.4c-2.1,0.9-4.5-0.2-5.4-2.3s0.2-4.5,2.3-5.4s4.5,0.2,5.4,2.3l0,0
	C64.9,46.2,63.9,48.6,61.7,49.4L61.7,49.4z"/>
<path class="st2" d="M37,64l-1,2.2c-3.6-0.3-6.9-2-9.1-4.8v-4.6c0,0.1,0.1,0.3,0.1,0.4C28.7,61.3,32.6,63.9,37,64z"/>
<path class="st2" d="M39.6,63.7c0.2,0-0.5,1.2-0.5,1.2l0,0L37,64.1C37.9,64.1,38.8,63.9,39.6,63.7z"/>
<path class="st2" d="M50.3,54.4c-0.1,0.8-0.2,1.7-0.4,2.5L47.8,56l-0.3,0.8c2-5.7-0.9-12-6.6-14s-12,0.9-14,6.6l0,0v-4.6
	c4.6-5.7,13-6.5,18.6-1.9c1.7,1.4,3.1,3.2,3.9,5.3C50.3,50.1,50.6,52.3,50.3,54.4z"/>
<path class="st2" d="M49.6,57.7l-0.5,1.2C49.3,58.4,49.4,58.1,49.6,57.7z"/>
<path class="st2" d="M43.1,50.7c-1.3-3.3-5.1-4.9-8.4-3.6s-4.9,5.1-3.6,8.4c1.3,3.3,5.1,4.9,8.4,3.6C42.9,57.7,44.5,54,43.1,50.7z
	 M38.7,56.9c-2.1,0.9-4.5-0.2-5.4-2.3s0.2-4.5,2.3-5.4s4.5,0.2,5.4,2.3l0,0C41.9,53.7,40.8,56.1,38.7,56.9z"/>
<path class="st2" d="M38.6,66.2l-2.5,5.9h-2.5l2.5-5.9C36.9,66.3,37.7,66.3,38.6,66.2z"/>
<path class="st2" d="M37,64l-1,2.2c0.8,0.1,1.7,0.1,2.5,0l0.6-1.3L37,64z"/>
<path class="st2" d="M49.1,58.8l-5.7,13.3h-2.5l3.3-7.9C46.3,62.9,48,61.1,49.1,58.8z"/>
<path class="st2" d="M47.4,56.8L46.9,58C47.1,57.6,47.3,57.2,47.4,56.8z"/>
<path class="st2" d="M49.9,56.9c-0.1,0.3-0.2,0.5-0.3,0.8L49.9,56.9L49.9,56.9z"/>
<path class="st2" d="M47.8,56l-0.3,0.8c-0.1,0.4-0.3,0.8-0.5,1.2l-2.7,6.3c2.1-1.3,3.7-3.2,4.8-5.4l0.5-1.2c0.1-0.3,0.2-0.5,0.3-0.8
	L47.8,56z"/>
<path class="st3" d="M152.4,66.4h2.3l-1,4.8h-1.8l-0.2-0.7h-0.1c-0.2,0.2-0.5,0.4-0.8,0.6c-0.3,0.1-0.7,0.2-1,0.2
	c-0.4,0-0.7-0.1-1-0.3c-0.3-0.2-0.4-0.6-0.4-0.9c0-0.2,0-0.5,0.1-0.7c0.1-0.3,0.1-0.5,0.2-0.8l0.5-2.2h2.3l-0.6,2.6
	c0,0.1,0,0.1-0.1,0.2c0,0.1,0,0.2,0,0.2c0,0.1,0,0.2,0,0.2c0,0.1,0,0.1,0,0.2s0,0.2,0.1,0.3c0.1,0.1,0.2,0.1,0.3,0.1s0.3,0,0.4-0.1
	c0.1-0.1,0.2-0.2,0.3-0.3L152.4,66.4z"/>
<path class="st3" d="M157.7,68.4l2.6-2h1.5l-2.2,1.8l1.7,3h-2.5l-1.1-2.2l-0.5,2.2h-2.3l1.6-7.5h2.3L157.7,68.4z"/>
<path class="st3" d="M165.7,66.4h2.3l-1,4.8h-1.8l-0.2-0.7h-0.1c-0.2,0.2-0.5,0.4-0.8,0.6c-0.3,0.1-0.7,0.2-1,0.2
	c-0.4,0-0.7-0.1-1-0.3c-0.3-0.2-0.4-0.6-0.4-0.9c0-0.2,0-0.5,0.1-0.7c0.1-0.3,0.1-0.5,0.2-0.8l0.5-2.2h2.3l-0.6,2.6
	c0,0.1,0,0.1-0.1,0.2c0,0.1,0,0.2,0,0.2c0,0.1,0,0.2,0,0.2c0,0.1,0,0.1,0,0.2s0,0.2,0.1,0.3c0.1,0.1,0.2,0.1,0.3,0.1s0.3,0,0.4-0.1
	c0.1-0.1,0.2-0.2,0.3-0.3L165.7,66.4z"/>
<path class="st3" d="M171.1,67.1c0.2-0.2,0.3-0.3,0.5-0.4s0.4-0.2,0.6-0.3c0.3-0.1,0.5-0.1,0.8-0.1s0.6,0.1,0.8,0.2
	c0.2,0.2,0.3,0.4,0.3,0.6h0.1c0.2-0.2,0.4-0.3,0.6-0.4c0.2-0.1,0.4-0.2,0.6-0.3c0.2-0.1,0.5-0.1,0.7-0.1c0.3,0,0.7,0.1,0.9,0.3
	c0.2,0.2,0.4,0.5,0.4,0.8c0,0.2,0,0.5-0.1,0.7c-0.1,0.3-0.1,0.6-0.2,0.9l-0.5,2.2h-2.2l0.6-2.9c0-0.1,0-0.2,0.1-0.3
	c0-0.1,0-0.2,0-0.3c0-0.1,0-0.2-0.1-0.3c-0.1-0.1-0.2-0.1-0.3-0.1s-0.3,0.1-0.4,0.2l-0.3,0.3l-0.7,3.5h-2.1l0.6-2.9
	c0-0.1,0-0.2,0.1-0.3c0-0.1,0-0.2,0-0.3c0-0.1,0-0.2-0.1-0.3c-0.1-0.1-0.2-0.1-0.3-0.1s-0.3,0.1-0.4,0.2c-0.1,0.1-0.2,0.2-0.3,0.2
	l-0.7,3.5H168l1-4.8h1.8L171.1,67.1L171.1,67.1z"/>
<path class="st3" d="M179.4,71.2h-1.8l1.6-7.5h2.3l-0.7,3.4h0.1c0.2-0.3,0.5-0.5,0.8-0.6s0.6-0.2,0.9-0.2c0.2,0,0.4,0,0.6,0.1
	c0.2,0.1,0.3,0.2,0.4,0.3c0.1,0.1,0.2,0.3,0.2,0.5s0.1,0.4,0.1,0.6s0,0.3,0,0.5s0,0.5-0.1,0.7c-0.1,0.3-0.1,0.5-0.2,0.8
	c-0.1,0.3-0.2,0.5-0.4,0.7s-0.4,0.4-0.6,0.6c-0.3,0.1-0.6,0.2-0.9,0.2c-0.2,0-0.4,0-0.6-0.1c-0.2,0-0.3-0.1-0.5-0.2
	c-0.1-0.1-0.3-0.2-0.4-0.3c-0.1-0.1-0.2-0.2-0.3-0.3h-0.1L179.4,71.2z M180.7,70.2c0.2,0,0.4-0.1,0.4-0.3c0.1-0.2,0.2-0.4,0.3-0.7
	c0.1-0.3,0.1-0.5,0.2-0.8c0-0.2,0.1-0.4,0.1-0.6c0-0.1,0-0.3-0.1-0.4c0-0.1-0.2-0.2-0.3-0.1c-0.2,0-0.3,0.1-0.4,0.2
	c-0.1,0.1-0.2,0.2-0.3,0.3l-0.4,2c0.1,0.1,0.1,0.2,0.2,0.3C180.4,70.2,180.5,70.2,180.7,70.2L180.7,70.2z"/>
<path class="st3" d="M186.4,71.2h-2.3l1-4.8h2.3L186.4,71.2z M187.7,64.9c0,0.2,0,0.3-0.1,0.4s-0.2,0.2-0.3,0.3
	c-0.1,0.1-0.3,0.2-0.4,0.2c-0.1,0-0.3,0.1-0.5,0.1c-0.3,0-0.5-0.1-0.7-0.2c-0.2-0.2-0.3-0.4-0.3-0.7c0-0.2,0-0.3,0.1-0.4
	s0.2-0.2,0.3-0.3c0.1-0.1,0.3-0.1,0.4-0.2c0.2,0,0.3-0.1,0.5-0.1c0.3,0,0.5,0.1,0.7,0.2C187.6,64.4,187.7,64.7,187.7,64.9z"/>
<path class="st3" d="M189.8,66.4h2.4l0.4,3.3l1.4-3.3h2.1l0.4,3.3l1.3-3.3h1.2l-2.2,4.8h-2.3l-0.4-2.4l-1.1,2.4h-2.3L189.8,66.4z"/>
<path class="st3" d="M199.4,66.8c0.4-0.2,0.8-0.3,1.2-0.4s0.9-0.1,1.3-0.1c0.4,0,0.8,0,1.2,0.1c0.3,0.1,0.5,0.2,0.8,0.3
	c0.2,0.1,0.3,0.3,0.4,0.5c0.1,0.2,0.1,0.4,0.1,0.7c0,0.2,0,0.3,0,0.5s0,0.3-0.1,0.4l-0.5,2.4H202l-0.2-0.7h-0.1
	c-0.2,0.3-0.5,0.5-0.8,0.6s-0.7,0.2-1,0.2c-0.2,0-0.4,0-0.5-0.1c-0.2,0-0.3-0.1-0.5-0.2c-0.1-0.1-0.2-0.3-0.3-0.4
	c-0.1-0.2-0.1-0.4-0.1-0.6c0-0.3,0.1-0.7,0.3-0.9c0.2-0.2,0.5-0.4,0.8-0.5c0.4-0.1,0.8-0.2,1.2-0.2s0.9,0,1.3,0c0-0.1,0-0.2,0.1-0.3
	c0-0.1,0-0.2,0-0.4c0-0.1,0-0.3-0.1-0.4s-0.3-0.2-0.4-0.2c-0.2,0-0.4,0.1-0.6,0.2c-0.1,0.2-0.2,0.3-0.2,0.6h-1.6L199.4,66.8z
	 M202,68.8h-0.2c-0.2,0-0.4,0-0.6,0.1c-0.1,0-0.3,0.1-0.4,0.2c-0.1,0.1-0.2,0.2-0.2,0.3c0,0.1-0.1,0.2-0.1,0.3c0,0.1,0,0.3,0.1,0.4
	s0.2,0.1,0.3,0.1c0.2,0,0.3-0.1,0.5-0.2c0.1-0.1,0.2-0.3,0.3-0.4L202,68.8z"/>
<path class="st3" d="M207.1,66.4h2.4l0.4,3.3l1.4-3.3h2.1l0.4,3.3l1.3-3.3h1.2l-2.2,4.8h-2.3l-0.4-2.4l-1.1,2.4H208L207.1,66.4z"/>
<path class="st3" d="M216.8,66.8c0.4-0.2,0.7-0.3,1.1-0.4c0.4-0.1,0.9-0.1,1.3-0.1c0.4,0,0.8,0,1.2,0.1c0.3,0.1,0.5,0.2,0.8,0.3
	c0.2,0.1,0.3,0.3,0.4,0.5c0.1,0.2,0.1,0.4,0.1,0.7c0,0.2,0,0.3,0,0.5c0,0.1,0,0.3-0.1,0.4l-0.5,2.4h-1.8l-0.2-0.7H219
	c-0.2,0.3-0.5,0.5-0.8,0.6s-0.6,0.2-0.9,0.2c-0.2,0-0.4,0-0.5-0.1c-0.2,0-0.3-0.1-0.5-0.2c-0.1-0.1-0.2-0.3-0.3-0.4
	c-0.1-0.2-0.1-0.4-0.1-0.6c0-0.3,0.1-0.7,0.3-0.9c0.2-0.2,0.5-0.4,0.8-0.5c0.4-0.1,0.8-0.2,1.2-0.2s0.9,0,1.3,0c0-0.1,0-0.2,0.1-0.3
	c0-0.1,0-0.2,0-0.4c0-0.1,0-0.3-0.1-0.4s-0.3-0.2-0.4-0.2c-0.2,0-0.4,0.1-0.6,0.2c-0.1,0.2-0.2,0.3-0.2,0.6h-1.6L216.8,66.8z
	 M219.3,68.8h-0.2c-0.2,0-0.4,0-0.6,0.1c-0.1,0-0.3,0.1-0.4,0.2c-0.1,0.1-0.2,0.2-0.2,0.3c0,0.1-0.1,0.2-0.1,0.3
	c0,0.1,0,0.3,0.1,0.4s0.2,0.1,0.3,0.1c0.2,0,0.3-0.1,0.5-0.2c0.1-0.1,0.2-0.3,0.3-0.4L219.3,68.8z"/>
<path class="st3" d="M225.5,67.8L225.5,67.8v-0.2c0-0.1,0-0.3-0.1-0.4s-0.2-0.2-0.3-0.2s-0.3,0.1-0.4,0.2c-0.1,0.1-0.2,0.3-0.2,0.4
	s0,0.2,0.1,0.3c0.1,0.1,0.2,0.1,0.3,0.2c0.1,0,0.2,0.1,0.4,0.1l0.4,0.1c0.2,0,0.3,0.1,0.5,0.2s0.3,0.1,0.4,0.3
	c0.1,0.1,0.2,0.2,0.3,0.4c0.1,0.2,0.1,0.4,0.1,0.6c0,0.3,0,0.6-0.2,0.8c-0.2,0.2-0.4,0.4-0.6,0.5c-0.3,0.1-0.6,0.2-0.9,0.3
	c-0.9,0.1-1.7,0.1-2.6,0c-0.3-0.1-0.6-0.1-0.8-0.3l0.2-1.1h1.5v0.1v0.1c0,0.1,0,0.3,0.1,0.4s0.3,0.2,0.4,0.2c0.2,0,0.3,0,0.5-0.2
	c0.1-0.1,0.1-0.2,0.1-0.3c0-0.1,0-0.2-0.1-0.3c-0.1-0.1-0.2-0.2-0.3-0.2c-0.1-0.1-0.3-0.1-0.4-0.1l-0.4-0.1c-0.1,0-0.2-0.1-0.3-0.1
	c-0.1-0.1-0.2-0.1-0.4-0.2c-0.1-0.1-0.2-0.2-0.3-0.4c-0.2-0.5-0.1-1,0.1-1.4c0.2-0.2,0.4-0.4,0.6-0.5c0.3-0.1,0.6-0.2,0.9-0.3
	c0.3-0.1,0.7-0.1,1-0.1c0.4,0,0.8,0,1.2,0.1c0.3,0.1,0.6,0.2,0.9,0.3l-0.3,1.1L225.5,67.8z"/>
<path class="st3" d="M230.6,67.1L230.6,67.1c0.2-0.1,0.4-0.3,0.6-0.4c0.2-0.1,0.4-0.2,0.6-0.3c0.2-0.1,0.5-0.1,0.7-0.1
	c0.4,0,0.7,0.1,1,0.3c0.2,0.2,0.4,0.5,0.4,0.8c0,0.1,0,0.2,0,0.3c0,0.1,0,0.3-0.1,0.4s-0.1,0.3-0.1,0.4s-0.1,0.3-0.1,0.4l-0.5,2.2
	h-2.3l0.6-2.9c0-0.1,0-0.2,0.1-0.3c0-0.1,0-0.2,0-0.3c0-0.1,0-0.2-0.1-0.3c-0.1-0.1-0.2-0.1-0.3-0.1s-0.3,0.1-0.4,0.2
	c-0.1,0.1-0.2,0.2-0.3,0.3l-0.7,3.5h-2.3l1.6-7.5h2.3L230.6,67.1z"/>
<path class="st3" d="M236.2,71.2H234l1-4.8h2.3L236.2,71.2z M237.6,64.9c0,0.2,0,0.3-0.1,0.4s-0.2,0.2-0.3,0.3
	c-0.1,0.1-0.2,0.2-0.4,0.2c-0.1,0-0.3,0.1-0.5,0.1c-0.3,0-0.5-0.1-0.8-0.2c-0.2-0.2-0.3-0.4-0.3-0.7c0-0.2,0-0.3,0.1-0.4
	s0.2-0.2,0.3-0.3c0.1-0.1,0.3-0.1,0.4-0.2c0.2,0,0.3-0.1,0.5-0.1c0.3,0,0.5,0.1,0.7,0.2C237.5,64.4,237.6,64.7,237.6,64.9
	L237.6,64.9z"/>
<path class="st3" d="M240.3,67.1c0.2-0.2,0.3-0.3,0.5-0.4s0.4-0.2,0.6-0.3c0.2-0.1,0.5-0.1,0.8-0.1c0.4,0,0.7,0.1,1,0.3
	c0.2,0.2,0.4,0.5,0.4,0.8c0,0.1,0,0.2,0,0.3c0,0.1,0,0.3-0.1,0.4s-0.1,0.3-0.1,0.4s-0.1,0.3-0.1,0.4l-0.5,2.2h-2.3l0.6-2.9l0.1-0.3
	c0-0.1,0-0.2,0-0.3c0-0.1,0-0.2-0.1-0.3c-0.1-0.1-0.2-0.1-0.3-0.1s-0.3,0.1-0.4,0.2c-0.1,0.1-0.2,0.2-0.3,0.2l-0.7,3.5h-2.3l1-4.8
	h1.8L240.3,67.1L240.3,67.1z"/>
<path class="st3" d="M248.5,63.7h2.3l-1.6,7.5h-1.8l-0.2-0.7h-0.1c-0.1,0.1-0.1,0.2-0.2,0.2c-0.1,0.1-0.2,0.2-0.4,0.3
	c-0.2,0.1-0.3,0.2-0.5,0.2c-0.2,0.1-0.4,0.1-0.7,0.1c-0.2,0-0.5,0-0.7-0.1c-0.3-0.1-0.6-0.4-0.7-0.8c0-0.2-0.1-0.4-0.1-0.6
	c0-0.1,0-0.3,0-0.5s0.1-0.4,0.1-0.7c0.1-0.3,0.1-0.5,0.3-0.8c0.1-0.3,0.2-0.5,0.4-0.7s0.4-0.4,0.7-0.6s0.7-0.2,1-0.2h0.4
	c0.1,0,0.3,0.1,0.4,0.1c0.1,0.1,0.2,0.1,0.3,0.3c0.1,0.1,0.2,0.3,0.2,0.4h0.1L248.5,63.7z M247.2,67.4c-0.2,0-0.4,0.1-0.4,0.3
	c-0.1,0.2-0.2,0.4-0.3,0.7c-0.1,0.3-0.1,0.5-0.2,0.8c0,0.2,0,0.4,0,0.6c0,0.1,0,0.3,0.1,0.4c0,0.1,0.2,0.2,0.3,0.2s0.1,0,0.2,0
	c0.1,0,0.1-0.1,0.2-0.1c0.1,0,0.1-0.1,0.2-0.2l0.1-0.1l0.4-2c-0.1-0.1-0.1-0.2-0.2-0.3C247.4,67.4,247.3,67.4,247.2,67.4z"/>
<path class="st3" d="M252.5,71.2h-2.3l1-4.8h2.3L252.5,71.2z M253.8,64.9c0,0.2,0,0.3-0.1,0.4s-0.2,0.2-0.3,0.3
	c-0.1,0.1-0.2,0.2-0.4,0.2c-0.1,0-0.3,0.1-0.5,0.1c-0.3,0-0.5-0.1-0.8-0.2c-0.2-0.2-0.3-0.4-0.3-0.7c0-0.2,0-0.3,0.1-0.4
	s0.2-0.2,0.3-0.3c0.1-0.1,0.3-0.1,0.4-0.2c0.2,0,0.3-0.1,0.5-0.1c0.3,0,0.5,0.1,0.7,0.2C253.7,64.4,253.8,64.7,253.8,64.9z"/>
<rect x="80.3" y="70.4" class="st3" width="61.3" height="0.9"/>
</svg>
